<?xml version="1.0" encoding="UTF-8" standalone="no"?>
<!DOCTYPE svg PUBLIC "-//W3C//DTD SVG 1.1//EN"
 "http://www.w3.org/Graphics/SVG/1.1/DTD/svg11.dtd">
<!-- Generated by graphviz version 2.43.0 (0)
 -->
<!-- Title: fsm Pages: 1 -->
<svg width="1160pt" height="740pt"
 viewBox="0.00 0.00 1160.00 740.00" xmlns="http://www.w3.org/2000/svg" xmlns:xlink="http://www.w3.org/1999/xlink">
<g id="graph0" class="graph" transform="scale(1 1) rotate(0) translate(4 736)">
<title>fsm</title>
<polygon fill="white" stroke="transparent" points="-4,4 -4,-736 1156,-736 1156,4 -4,4"/>
<!-- Booting New Kernel -->
<g id="node1" class="node">
<title>Booting New Kernel</title>
<ellipse fill="none" stroke="black" cx="543" cy="-714" rx="103.98" ry="18"/>
<text text-anchor="middle" x="543" y="-710.3" font-family="Times,serif" font-size="14.00">Booting New Kernel</text>
</g>
<g id="node2" class="node">
<title></title>
<ellipse fill="none" stroke="black" cx="688" cy="-18" rx="27" ry="18"/>
</g>
<!-- Booting New Kernel&#45;&gt; -->
<g id="edge1" class="edge">
<title>Booting New Kernel&#45;&gt;</title>
<path fill="none" stroke="black" d="M443.08,-708.88C334.74,-703.71 169.12,-693.6 108,-678 56.75,-664.92 0,-680.89 0,-628 0,-628 0,-628 0,-104 0,-37.81 508.08,-22.61 651,-19.64"/>
<polygon fill="black" stroke="black" points="651.1,-23.14 661.03,-19.44 650.96,-16.14 651.1,-23.14"/>
<text text-anchor="middle" x="18" y="-362.3" font-family="Times,serif" font-size="14.00">Alive</text>
</g>
<!-- Machine Reclaim -->
<g id="node3" class="node">
<title>Machine Reclaim</title>
<ellipse fill="none" stroke="black" cx="543" cy="-627" rx="90.18" ry="18"/>
<text text-anchor="middle" x="543" y="-623.3" font-family="Times,serif" font-size="14.00">Machine Reclaim</text>
</g>
<!-- Booting New Kernel&#45;&gt;Machine Reclaim -->
<g id="edge2" class="edge">
<title>Booting New Kernel&#45;&gt;Machine Reclaim</title>
<path fill="none" stroke="black" d="M543,-695.8C543,-684.16 543,-668.55 543,-655.24"/>
<polygon fill="black" stroke="black" points="546.5,-655.18 543,-645.18 539.5,-655.18 546.5,-655.18"/>
<text text-anchor="middle" x="604.5" y="-666.8" font-family="Times,serif" font-size="14.00">Machine Reclaim</text>
</g>
<!-- Phoned Home -->
<g id="node4" class="node">
<title>Phoned Home</title>
<ellipse fill="none" stroke="black" cx="749" cy="-540" rx="75.29" ry="18"/>
<text text-anchor="middle" x="749" y="-536.3" font-family="Times,serif" font-size="14.00">Phoned Home</text>
</g>
<!-- Booting New Kernel&#45;&gt;Phoned Home -->
<g id="edge3" class="edge">
<title>Booting New Kernel&#45;&gt;Phoned Home</title>
<path fill="none" stroke="black" d="M631.59,-704.56C703.04,-692.44 798.67,-662.91 843,-591 853.52,-573.94 838.26,-562.36 817.17,-554.68"/>
<polygon fill="black" stroke="black" points="818.08,-551.29 807.49,-551.52 815.91,-557.95 818.08,-551.29"/>
<text text-anchor="middle" x="880" y="-623.3" font-family="Times,serif" font-size="14.00">Phoned Home</text>
</g>
<!-- Planned Reboot -->
<g id="node5" class="node">
<title>Planned Reboot</title>
<ellipse fill="none" stroke="black" cx="532" cy="-105" rx="83.69" ry="18"/>
<text text-anchor="middle" x="532" y="-101.3" font-family="Times,serif" font-size="14.00">Planned Reboot</text>
</g>
<!-- Booting New Kernel&#45;&gt;Planned Reboot -->
<g id="edge4" class="edge">
<title>Booting New Kernel&#45;&gt;Planned Reboot</title>
<path fill="none" stroke="black" d="M448.31,-706.52C302.08,-695.23 38,-669.15 38,-628 38,-628 38,-628 38,-452 38,-339.68 75.33,-307.17 155,-228 232.14,-151.35 357.76,-122.84 442.57,-112.25"/>
<polygon fill="black" stroke="black" points="443.19,-115.7 452.71,-111.05 442.36,-108.75 443.19,-115.7"/>
<text text-anchor="middle" x="98.5" y="-405.8" font-family="Times,serif" font-size="14.00">Planned Reboot</text>
</g>
<!-- Machine Reclaim&#45;&gt;Phoned Home -->
<g id="edge10" class="edge">
<title>Machine Reclaim&#45;&gt;Phoned Home</title>
<path fill="none" stroke="black" d="M622.3,-618.28C664.36,-612.78 710.65,-604.01 727,-591 734.25,-585.23 739.18,-576.57 742.49,-568.08"/>
<polygon fill="black" stroke="black" points="745.88,-568.96 745.68,-558.37 739.23,-566.77 745.88,-568.96"/>
<text text-anchor="middle" x="789" y="-579.8" font-family="Times,serif" font-size="14.00">Phoned Home</text>
</g>
<!-- PXE Booting -->
<g id="node7" class="node">
<title>PXE Booting</title>
<ellipse fill="none" stroke="black" cx="403" cy="-540" rx="69.59" ry="18"/>
<text text-anchor="middle" x="403" y="-536.3" font-family="Times,serif" font-size="14.00">PXE Booting</text>
</g>
<!-- Machine Reclaim&#45;&gt;PXE Booting -->
<g id="edge9" class="edge">
<title>Machine Reclaim&#45;&gt;PXE Booting</title>
<path fill="none" stroke="black" d="M452.85,-625.49C389.61,-622.98 312.8,-614.9 292,-591 287.62,-585.97 288.06,-581.38 292,-576 298.32,-567.38 318.37,-559.91 339.73,-554.11"/>
<polygon fill="black" stroke="black" points="340.78,-557.45 349.59,-551.56 339.03,-550.67 340.78,-557.45"/>
<text text-anchor="middle" x="337.5" y="-579.8" font-family="Times,serif" font-size="14.00">PXE Booting</text>
</g>
<!-- Preparing -->
<g id="node8" class="node">
<title>Preparing</title>
<ellipse fill="none" stroke="black" cx="222" cy="-453" rx="57.39" ry="18"/>
<text text-anchor="middle" x="222" y="-449.3" font-family="Times,serif" font-size="14.00">Preparing</text>
</g>
<!-- Machine Reclaim&#45;&gt;Preparing -->
<g id="edge11" class="edge">
<title>Machine Reclaim&#45;&gt;Preparing</title>
<path fill="none" stroke="black" d="M458.7,-620.39C395.42,-615.1 314.77,-605.75 285,-591 244.36,-570.86 229.87,-515.23 224.75,-481.38"/>
<polygon fill="black" stroke="black" points="228.19,-480.67 223.4,-471.22 221.25,-481.6 228.19,-480.67"/>
<text text-anchor="middle" x="287" y="-536.3" font-family="Times,serif" font-size="14.00">Preparing</text>
</g>
<!-- Phoned Home&#45;&gt; -->
<g id="edge17" class="edge">
<title>Phoned Home&#45;&gt;</title>
<path fill="none" stroke="black" d="M779.91,-523.26C803.5,-508.8 832,-484.94 832,-454 832,-454 832,-454 832,-321.5 832,-247.05 926.56,-277.94 957,-210 963.54,-195.4 960.71,-189.56 957,-174 946.95,-131.85 943.8,-117.48 913,-87 862.06,-36.59 775.13,-23.34 725.55,-19.99"/>
<polygon fill="black" stroke="black" points="725.46,-16.48 715.27,-19.41 725.06,-23.47 725.46,-16.48"/>
<text text-anchor="middle" x="939" y="-275.3" font-family="Times,serif" font-size="14.00">Phoned Home</text>
</g>
<!-- Phoned Home&#45;&gt;Machine Reclaim -->
<g id="edge16" class="edge">
<title>Phoned Home&#45;&gt;Machine Reclaim</title>
<path fill="none" stroke="black" d="M683.88,-549.18C656.87,-554.35 625.87,-562.68 600,-576 596.26,-577.93 582.03,-590.41 568.72,-602.42"/>
<polygon fill="black" stroke="black" points="566.14,-600.04 561.08,-609.35 570.84,-605.22 566.14,-600.04"/>
<text text-anchor="middle" x="661.5" y="-579.8" font-family="Times,serif" font-size="14.00">Machine Reclaim</text>
</g>
<!-- Phoned Home&#45;&gt;Planned Reboot -->
<g id="edge18" class="edge">
<title>Phoned Home&#45;&gt;Planned Reboot</title>
<path fill="none" stroke="black" d="M726.79,-522.58C673.58,-482.7 541.64,-380.31 520,-330 491.57,-263.9 510.43,-176.53 523.13,-133.03"/>
<polygon fill="black" stroke="black" points="526.55,-133.78 526.11,-123.2 519.86,-131.75 526.55,-133.78"/>
<text text-anchor="middle" x="576.5" y="-318.8" font-family="Times,serif" font-size="14.00">Planned Reboot</text>
</g>
<!-- Planned Reboot&#45;&gt; -->
<g id="edge19" class="edge">
<title>Planned Reboot&#45;&gt;</title>
<path fill="none" stroke="black" d="M561.34,-88.01C589.25,-72.8 631.01,-50.05 658.86,-34.88"/>
<polygon fill="black" stroke="black" points="660.62,-37.9 667.73,-30.05 657.27,-31.76 660.62,-37.9"/>
<text text-anchor="middle" x="670" y="-57.8" font-family="Times,serif" font-size="14.00">Phoned Home</text>
</g>
<!-- Installing -->
<g id="node6" class="node">
<title>Installing</title>
<ellipse fill="none" stroke="black" cx="893" cy="-192" rx="54.69" ry="18"/>
<text text-anchor="middle" x="893" y="-188.3" font-family="Times,serif" font-size="14.00">Installing</text>
</g>
<!-- Installing&#45;&gt;Booting New Kernel -->
<g id="edge6" class="edge">
<title>Installing&#45;&gt;Booting New Kernel</title>
<path fill="none" stroke="black" d="M916.78,-208.62C923.92,-214.13 931.35,-220.77 937,-228 1001.26,-310.33 1008,-347.56 1008,-452 1008,-628 1008,-628 1008,-628 1008,-664.65 781.54,-691.55 644.69,-704.45"/>
<polygon fill="black" stroke="black" points="644.22,-700.98 634.59,-705.39 644.87,-707.95 644.22,-700.98"/>
<text text-anchor="middle" x="1080" y="-449.3" font-family="Times,serif" font-size="14.00">Booting New Kernel</text>
</g>
<!-- Installing&#45;&gt; -->
<g id="edge5" class="edge">
<title>Installing&#45;&gt;</title>
<path fill="none" stroke="black" d="M889.23,-173.78C881.93,-144.57 862.99,-85.41 824,-54 795.81,-31.29 754.56,-23.15 724.89,-20.32"/>
<polygon fill="black" stroke="black" points="725.17,-16.83 714.92,-19.52 724.61,-23.81 725.17,-16.83"/>
<text text-anchor="middle" x="891" y="-101.3" font-family="Times,serif" font-size="14.00">Alive</text>
</g>
<!-- Installing&#45;&gt;Machine Reclaim -->
<g id="edge7" class="edge">
<title>Installing&#45;&gt;Machine Reclaim</title>
<path fill="none" stroke="black" d="M905.63,-209.81C909.73,-215.49 914.19,-221.93 918,-228 934.83,-254.86 944.67,-266.52 936,-297 920.98,-349.79 889.86,-350.46 871,-402 841.83,-481.75 903.97,-531.89 843,-591 828.39,-605.17 721.13,-615.03 639,-620.59"/>
<polygon fill="black" stroke="black" points="638.6,-617.11 628.86,-621.26 639.07,-624.09 638.6,-617.11"/>
<text text-anchor="middle" x="932.5" y="-405.8" font-family="Times,serif" font-size="14.00">Machine Reclaim</text>
</g>
<!-- Installing&#45;&gt;Planned Reboot -->
<g id="edge8" class="edge">
<title>Installing&#45;&gt;Planned Reboot</title>
<path fill="none" stroke="black" d="M844.93,-183.34C781.36,-173.19 677.06,-156.52 675,-156 642.27,-147.72 606.41,-135.17 578.79,-124.72"/>
<polygon fill="black" stroke="black" points="579.97,-121.42 569.38,-121.12 577.47,-127.96 579.97,-121.42"/>
<text text-anchor="middle" x="731.5" y="-144.8" font-family="Times,serif" font-size="14.00">Planned Reboot</text>
</g>
<!-- PXE Booting&#45;&gt; -->
<g id="edge13" class="edge">
<title>PXE Booting&#45;&gt;</title>
<path fill="none" stroke="black" d="M395.25,-521.95C376.4,-478.27 331.37,-358.88 354,-261 373.39,-177.14 372.7,-141.88 439,-87 500.68,-35.94 597.57,-23.03 650.47,-19.89"/>
<polygon fill="black" stroke="black" points="650.93,-23.37 660.75,-19.37 650.58,-16.38 650.93,-23.37"/>
<text text-anchor="middle" x="399.5" y="-275.3" font-family="Times,serif" font-size="14.00">PXE Booting</text>
</g>
<!-- PXE Booting&#45;&gt;Machine Reclaim -->
<g id="edge12" class="edge">
<title>PXE Booting&#45;&gt;Machine Reclaim</title>
<path fill="none" stroke="black" d="M399.34,-558.12C398.11,-568.74 398.58,-582.02 406,-591 413.93,-600.61 437.12,-608.1 462.22,-613.64"/>
<polygon fill="black" stroke="black" points="461.78,-617.13 472.28,-615.75 463.21,-610.28 461.78,-617.13"/>
<text text-anchor="middle" x="467.5" y="-579.8" font-family="Times,serif" font-size="14.00">Machine Reclaim</text>
</g>
<!-- PXE Booting&#45;&gt;Planned Reboot -->
<g id="edge14" class="edge">
<title>PXE Booting&#45;&gt;Planned Reboot</title>
<path fill="none" stroke="black" d="M399.06,-521.75C388.8,-475.05 363.73,-347.47 388,-315 404.92,-292.36 428.78,-316.75 449,-297 501.08,-246.12 462,-203.71 499,-141 501.15,-137.36 503.74,-133.79 506.51,-130.4"/>
<polygon fill="black" stroke="black" points="509.16,-132.7 513.19,-122.9 503.93,-128.04 509.16,-132.7"/>
<text text-anchor="middle" x="444.5" y="-318.8" font-family="Times,serif" font-size="14.00">Planned Reboot</text>
</g>
<!-- PXE Booting&#45;&gt;Preparing -->
<g id="edge15" class="edge">
<title>PXE Booting&#45;&gt;Preparing</title>
<path fill="none" stroke="black" d="M351.15,-527.87C321.06,-520.86 286.49,-511.71 273,-504 261.39,-497.37 250.52,-487.45 241.82,-478.2"/>
<polygon fill="black" stroke="black" points="244.34,-475.76 235.05,-470.66 239.13,-480.44 244.34,-475.76"/>
<text text-anchor="middle" x="309" y="-492.8" font-family="Times,serif" font-size="14.00">Preparing</text>
</g>
<!-- Preparing&#45;&gt; -->
<g id="edge20" class="edge">
<title>Preparing&#45;&gt;</title>
<path fill="none" stroke="black" d="M212.21,-434.91C209.29,-429.33 206.26,-423.01 204,-417 174.9,-339.61 159,-319.18 159,-236.5 159,-236.5 159,-236.5 159,-104 159,-79.35 162.6,-67.84 183,-54 221.4,-27.94 540.2,-21.06 650.57,-19.45"/>
<polygon fill="black" stroke="black" points="650.93,-22.94 660.88,-19.3 650.84,-15.94 650.93,-22.94"/>
<text text-anchor="middle" x="178" y="-231.8" font-family="Times,serif" font-size="14.00">Alive</text>
</g>
<!-- Preparing&#45;&gt;Machine Reclaim -->
<g id="edge21" class="edge">
<title>Preparing&#45;&gt;Machine Reclaim</title>
<path fill="none" stroke="black" d="M186.88,-467.38C143.36,-485.93 78.36,-521.33 108,-558 148.82,-608.49 327,-621.91 442.28,-625.23"/>
<polygon fill="black" stroke="black" points="442.45,-628.74 452.54,-625.51 442.64,-621.74 442.45,-628.74"/>
<text text-anchor="middle" x="169.5" y="-536.3" font-family="Times,serif" font-size="14.00">Machine Reclaim</text>
</g>
<!-- Preparing&#45;&gt;Planned Reboot -->
<g id="edge22" class="edge">
<title>Preparing&#45;&gt;Planned Reboot</title>
<path fill="none" stroke="black" d="M216.04,-434.83C204.84,-399.3 184.74,-316.43 219,-261 271.02,-176.83 383.89,-136.99 458.9,-119.16"/>
<polygon fill="black" stroke="black" points="459.81,-122.54 468.77,-116.89 458.24,-115.72 459.81,-122.54"/>
<text text-anchor="middle" x="275.5" y="-275.3" font-family="Times,serif" font-size="14.00">Planned Reboot</text>
</g>
<!-- Registering -->
<g id="node9" class="node">
<title>Registering</title>
<ellipse fill="none" stroke="black" cx="651" cy="-366" rx="64.99" ry="18"/>
<text text-anchor="middle" x="651" y="-362.3" font-family="Times,serif" font-size="14.00">Registering</text>
</g>
<!-- Preparing&#45;&gt;Registering -->
<g id="edge23" class="edge">
<title>Preparing&#45;&gt;Registering</title>
<path fill="none" stroke="black" d="M266.44,-441.65C312.31,-431.12 385.98,-414.59 450,-402 495.4,-393.07 546.8,-384.14 586.26,-377.54"/>
<polygon fill="black" stroke="black" points="586.99,-380.96 596.28,-375.87 585.84,-374.06 586.99,-380.96"/>
<text text-anchor="middle" x="492" y="-405.8" font-family="Times,serif" font-size="14.00">Registering</text>
</g>
<!-- Registering&#45;&gt; -->
<g id="edge24" class="edge">
<title>Registering&#45;&gt;</title>
<path fill="none" stroke="black" d="M657.56,-347.79C665.68,-326.94 680.24,-290.88 695,-261 706.54,-237.62 715.5,-234.65 724,-210 731.91,-187.06 730.22,-180.2 732,-156 734.67,-119.76 728.27,-62.95 724,-54 721.35,-48.46 717.43,-43.31 713.15,-38.77"/>
<polygon fill="black" stroke="black" points="715.4,-36.08 705.74,-31.72 710.57,-41.15 715.4,-36.08"/>
<text text-anchor="middle" x="749" y="-188.3" font-family="Times,serif" font-size="14.00">Alive</text>
</g>
<!-- Registering&#45;&gt;Machine Reclaim -->
<g id="edge25" class="edge">
<title>Registering&#45;&gt;Machine Reclaim</title>
<path fill="none" stroke="black" d="M629.57,-383.16C603.61,-404.21 561.24,-443.71 544,-489 530.27,-525.07 533.55,-570.46 537.78,-598.86"/>
<polygon fill="black" stroke="black" points="534.35,-599.55 539.42,-608.86 541.26,-598.42 534.35,-599.55"/>
<text text-anchor="middle" x="605.5" y="-492.8" font-family="Times,serif" font-size="14.00">Machine Reclaim</text>
</g>
<!-- Registering&#45;&gt;Planned Reboot -->
<g id="edge26" class="edge">
<title>Registering&#45;&gt;Planned Reboot</title>
<path fill="none" stroke="black" d="M648.84,-347.7C646.95,-337.53 643.44,-324.79 637,-315 609.04,-272.49 572.55,-287.57 548,-243 529.15,-208.78 527.83,-162.53 529.35,-133.48"/>
<polygon fill="black" stroke="black" points="532.86,-133.47 530.04,-123.26 525.87,-133 532.86,-133.47"/>
<text text-anchor="middle" x="604.5" y="-231.8" font-family="Times,serif" font-size="14.00">Planned Reboot</text>
</g>
<!-- Waiting -->
<g id="node10" class="node">
<title>Waiting</title>
<ellipse fill="none" stroke="black" cx="750" cy="-279" rx="46.29" ry="18"/>
<text text-anchor="middle" x="750" y="-275.3" font-family="Times,serif" font-size="14.00">Waiting</text>
</g>
<!-- Registering&#45;&gt;Waiting -->
<g id="edge27" class="edge">
<title>Registering&#45;&gt;Waiting</title>
<path fill="none" stroke="black" d="M670.09,-348.61C685.35,-335.51 706.9,-317.01 723.78,-302.51"/>
<polygon fill="black" stroke="black" points="726.33,-304.93 731.64,-295.76 721.77,-299.62 726.33,-304.93"/>
<text text-anchor="middle" x="734.5" y="-318.8" font-family="Times,serif" font-size="14.00">Waiting</text>
</g>
<!-- Waiting&#45;&gt; -->
<g id="edge28" class="edge">
<title>Waiting&#45;&gt;</title>
<path fill="none" stroke="black" d="M761.8,-261.34C770.4,-248.12 781.33,-228.8 786,-210 798.32,-160.4 763.96,-59.04 760,-54 750.6,-42.04 736.08,-33.91 722.54,-28.52"/>
<polygon fill="black" stroke="black" points="723.53,-25.15 712.93,-25.06 721.16,-31.74 723.53,-25.15"/>
<text text-anchor="middle" x="805" y="-144.8" font-family="Times,serif" font-size="14.00">Alive</text>
</g>
<!-- Waiting&#45;&gt;Machine Reclaim -->
<g id="edge30" class="edge">
<title>Waiting&#45;&gt;Machine Reclaim</title>
<path fill="none" stroke="black" d="M760.02,-296.67C764.61,-306.4 768.36,-318.9 765,-330 748.75,-383.68 721.23,-385.43 695,-435 679.52,-464.25 686.25,-477.08 667,-504 638.59,-543.72 618.05,-540.99 584,-576 576.49,-583.73 568.84,-592.69 562.22,-600.87"/>
<polygon fill="black" stroke="black" points="559.46,-598.72 555.99,-608.73 564.95,-603.07 559.46,-598.72"/>
<text text-anchor="middle" x="756.5" y="-449.3" font-family="Times,serif" font-size="14.00">Machine Reclaim</text>
</g>
<!-- Waiting&#45;&gt;Planned Reboot -->
<g id="edge31" class="edge">
<title>Waiting&#45;&gt;Planned Reboot</title>
<path fill="none" stroke="black" d="M727.61,-263.07C710.86,-252.35 687.13,-238.06 665,-228 641.97,-217.53 631.1,-225.36 611,-210 581.71,-187.63 587.95,-169.84 565,-141 562.17,-137.45 559.06,-133.83 555.91,-130.33"/>
<polygon fill="black" stroke="black" points="558.41,-127.88 549.05,-122.93 553.28,-132.64 558.41,-127.88"/>
<text text-anchor="middle" x="667.5" y="-188.3" font-family="Times,serif" font-size="14.00">Planned Reboot</text>
</g>
<!-- Waiting&#45;&gt;Installing -->
<g id="edge29" class="edge">
<title>Waiting&#45;&gt;Installing</title>
<path fill="none" stroke="black" d="M780.18,-265.26C793.86,-259.1 810.06,-251.25 824,-243 838.07,-234.67 852.85,-224.22 865.1,-215.03"/>
<polygon fill="black" stroke="black" points="867.31,-217.75 873.14,-208.9 863.07,-212.18 867.31,-217.75"/>
<text text-anchor="middle" x="880" y="-231.8" font-family="Times,serif" font-size="14.00">Installing</text>
</g>
</g>
</svg>
