<?xml version="1.0" encoding="UTF-8" standalone="no"?>
<!DOCTYPE svg PUBLIC "-//W3C//DTD SVG 1.1//EN"
 "http://www.w3.org/Graphics/SVG/1.1/DTD/svg11.dtd">
<!-- Generated by graphviz version 2.43.0 (0)
 -->
<!-- Title: fsm Pages: 1 -->
<svg width="2310pt" height="1001pt"
 viewBox="0.00 0.00 2310.00 1001.00" xmlns="http://www.w3.org/2000/svg" xmlns:xlink="http://www.w3.org/1999/xlink">
<g id="graph0" class="graph" transform="scale(1 1) rotate(0) translate(4 997)">
<title>fsm</title>
<polygon fill="white" stroke="transparent" points="-4,4 -4,-997 2306,-997 2306,4 -4,4"/>
<!-- State Alive -->
<g id="node1" class="node">
<title>State Alive</title>
<ellipse fill="none" stroke="black" cx="1008" cy="-888" rx="61.99" ry="18"/>
<text text-anchor="middle" x="1008" y="-884.3" font-family="Times,serif" font-size="14.00">State Alive</text>
</g>
<!-- State Machine Reclaim -->
<g id="node2" class="node">
<title>State Machine Reclaim</title>
<ellipse fill="none" stroke="black" cx="1192" cy="-801" rx="118.08" ry="18"/>
<text text-anchor="middle" x="1192" y="-797.3" font-family="Times,serif" font-size="14.00">State Machine Reclaim</text>
</g>
<!-- State Alive&#45;&gt;State Machine Reclaim -->
<g id="edge1" class="edge">
<title>State Alive&#45;&gt;State Machine Reclaim</title>
<path fill="none" stroke="black" d="M1039.63,-872.39C1069.28,-858.69 1113.9,-838.08 1147.2,-822.7"/>
<polygon fill="black" stroke="black" points="1149.09,-825.68 1156.7,-818.31 1146.16,-819.32 1149.09,-825.68"/>
<text text-anchor="middle" x="1172.5" y="-840.8" font-family="Times,serif" font-size="14.00">Machine Reclaim</text>
</g>
<!-- State Planned Reboot -->
<g id="node3" class="node">
<title>State Planned Reboot</title>
<ellipse fill="none" stroke="black" cx="830" cy="-714" rx="111.58" ry="18"/>
<text text-anchor="middle" x="830" y="-710.3" font-family="Times,serif" font-size="14.00">State Planned Reboot</text>
</g>
<!-- State Alive&#45;&gt;State Planned Reboot -->
<g id="edge2" class="edge">
<title>State Alive&#45;&gt;State Planned Reboot</title>
<path fill="none" stroke="black" d="M954.08,-879.18C916.87,-870.82 869.51,-853.72 843,-819 826.32,-797.15 824.8,-764.87 826.35,-742.08"/>
<polygon fill="black" stroke="black" points="829.85,-742.32 827.28,-732.05 822.88,-741.68 829.85,-742.32"/>
<text text-anchor="middle" x="899.5" y="-797.3" font-family="Times,serif" font-size="14.00">Planned Reboot</text>
</g>
<!-- State Machine Reclaim&#45;&gt;State Planned Reboot -->
<g id="edge31" class="edge">
<title>State Machine Reclaim&#45;&gt;State Planned Reboot</title>
<path fill="none" stroke="black" d="M1075.39,-797.81C1022.38,-793.78 959.65,-784.7 906,-765 888.81,-758.69 871.6,-747.84 857.92,-737.86"/>
<polygon fill="black" stroke="black" points="859.98,-735.03 849.89,-731.8 855.76,-740.62 859.98,-735.03"/>
<text text-anchor="middle" x="962.5" y="-753.8" font-family="Times,serif" font-size="14.00">Planned Reboot</text>
</g>
<!-- State Phoned Home -->
<g id="node6" class="node">
<title>State Phoned Home</title>
<ellipse fill="none" stroke="black" cx="1778" cy="-105" rx="103.18" ry="18"/>
<text text-anchor="middle" x="1778" y="-101.3" font-family="Times,serif" font-size="14.00">State Phoned Home</text>
</g>
<!-- State Machine Reclaim&#45;&gt;State Phoned Home -->
<g id="edge30" class="edge">
<title>State Machine Reclaim&#45;&gt;State Phoned Home</title>
<path fill="none" stroke="black" d="M1306.55,-796.37C1417.36,-791.86 1571.75,-782.5 1594,-765 1624.4,-741.08 1675.79,-460.36 1705,-435 1738.11,-406.26 1773.79,-450.56 1802,-417 1828.74,-385.19 1803,-365.06 1803,-323.5 1803,-323.5 1803,-323.5 1803,-191 1803,-170.87 1796.47,-149.12 1790.08,-132.65"/>
<polygon fill="black" stroke="black" points="1793.22,-131.07 1786.19,-123.15 1786.74,-133.73 1793.22,-131.07"/>
<text text-anchor="middle" x="1755" y="-449.3" font-family="Times,serif" font-size="14.00">Phoned Home</text>
</g>
<!-- State PXE Booting -->
<g id="node7" class="node">
<title>State PXE Booting</title>
<ellipse fill="none" stroke="black" cx="436" cy="-627" rx="96.68" ry="18"/>
<text text-anchor="middle" x="436" y="-623.3" font-family="Times,serif" font-size="14.00">State PXE Booting</text>
</g>
<!-- State Machine Reclaim&#45;&gt;State PXE Booting -->
<g id="edge29" class="edge">
<title>State Machine Reclaim&#45;&gt;State PXE Booting</title>
<path fill="none" stroke="black" d="M1089.83,-791.9C1049.41,-788.85 1002.53,-785.52 960,-783 783.68,-772.55 736.66,-797.23 563,-765 517.4,-756.54 495.82,-765.74 464,-732 444.51,-711.33 438.29,-678.56 436.46,-655.34"/>
<polygon fill="black" stroke="black" points="439.94,-654.89 435.88,-645.11 432.95,-655.29 439.94,-654.89"/>
<text text-anchor="middle" x="509.5" y="-710.3" font-family="Times,serif" font-size="14.00">PXE Booting</text>
</g>
<!-- State Preparing -->
<g id="node8" class="node">
<title>State Preparing</title>
<ellipse fill="none" stroke="black" cx="325" cy="-540" rx="85.29" ry="18"/>
<text text-anchor="middle" x="325" y="-536.3" font-family="Times,serif" font-size="14.00">State Preparing</text>
</g>
<!-- State Machine Reclaim&#45;&gt;State Preparing -->
<g id="edge32" class="edge">
<title>State Machine Reclaim&#45;&gt;State Preparing</title>
<path fill="none" stroke="black" d="M1090.41,-791.77C1049.87,-788.69 1002.74,-785.37 960,-783 907.04,-780.06 533.17,-782.21 483,-765 401.26,-736.95 364.37,-724.29 330,-645 319.42,-620.6 319.35,-589.89 321.21,-568.18"/>
<polygon fill="black" stroke="black" points="324.71,-568.34 322.27,-558.03 317.75,-567.61 324.71,-568.34"/>
<text text-anchor="middle" x="383" y="-666.8" font-family="Times,serif" font-size="14.00">Preparing</text>
</g>
<!-- self_transition -->
<g id="node13" class="node">
<title>self_transition</title>
<ellipse fill="none" stroke="black" cx="209" cy="-18" rx="77.19" ry="18"/>
<text text-anchor="middle" x="209" y="-14.3" font-family="Times,serif" font-size="14.00">self_transition</text>
</g>
<!-- State Machine Reclaim&#45;&gt;self_transition -->
<g id="edge28" class="edge">
<title>State Machine Reclaim&#45;&gt;self_transition</title>
<path fill="none" stroke="black" d="M1305.8,-795.98C1345.81,-791.28 1390.2,-782.19 1428,-765 1498.69,-732.86 1513.92,-710.9 1555,-645 1592.12,-585.46 1609.78,-572.26 1626,-504 1637.47,-455.72 1575.42,-462.67 1556,-417 1513.71,-317.56 1618.41,-255.97 1548,-174 1466.05,-78.6 577.56,-34.12 294.85,-22.32"/>
<polygon fill="black" stroke="black" points="294.79,-18.81 284.65,-21.89 294.5,-25.81 294.79,-18.81"/>
<text text-anchor="middle" x="1617.5" y="-405.8" font-family="Times,serif" font-size="14.00">Machine Reclaim</text>
</g>
<!-- State Planned Reboot&#45;&gt;State Machine Reclaim -->
<g id="edge42" class="edge">
<title>State Planned Reboot&#45;&gt;State Machine Reclaim</title>
<path fill="none" stroke="black" d="M921.46,-724.5C953.11,-729.72 988.33,-737.73 1019,-750 1030.33,-754.53 1030.78,-760.21 1042,-765 1061.64,-773.39 1083.62,-779.95 1104.57,-785"/>
<polygon fill="black" stroke="black" points="1103.9,-788.44 1114.44,-787.29 1105.49,-781.62 1103.9,-788.44"/>
<text text-anchor="middle" x="1103.5" y="-753.8" font-family="Times,serif" font-size="14.00">Machine Reclaim</text>
</g>
<!-- State Planned Reboot&#45;&gt;State PXE Booting -->
<g id="edge43" class="edge">
<title>State Planned Reboot&#45;&gt;State PXE Booting</title>
<path fill="none" stroke="black" d="M749.72,-701.35C723.67,-696.02 695.05,-688.49 670,-678 658.74,-673.29 658.37,-667.43 647,-663 640.76,-660.57 574.48,-649.75 517.85,-640.78"/>
<polygon fill="black" stroke="black" points="518.19,-637.29 507.77,-639.19 517.1,-644.21 518.19,-637.29"/>
<text text-anchor="middle" x="715.5" y="-666.8" font-family="Times,serif" font-size="14.00">PXE Booting</text>
</g>
<!-- State Planned Reboot&#45;&gt;State Preparing -->
<g id="edge46" class="edge">
<title>State Planned Reboot&#45;&gt;State Preparing</title>
<path fill="none" stroke="black" d="M812.26,-696.05C799.18,-684.63 780.35,-670.37 761,-663 686.69,-634.7 655.9,-676.74 583,-645 560.77,-635.32 563.14,-620.88 542,-609 496.09,-583.19 439.09,-565.81 395.04,-555.09"/>
<polygon fill="black" stroke="black" points="395.81,-551.68 385.28,-552.77 394.2,-558.49 395.81,-551.68"/>
<text text-anchor="middle" x="619" y="-623.3" font-family="Times,serif" font-size="14.00">Preparing</text>
</g>
<!-- State Planned Reboot&#45;&gt;self_transition -->
<g id="edge44" class="edge">
<title>State Planned Reboot&#45;&gt;self_transition</title>
<path fill="none" stroke="black" d="M752.69,-700.95C739.47,-699.13 725.86,-697.39 713,-696 601.37,-683.92 571.44,-698.26 461,-678 438.18,-673.81 433.83,-667.15 411,-663 352.93,-652.45 195.2,-677.6 146,-645 15.18,-558.32 0,-480.43 0,-323.5 0,-323.5 0,-323.5 0,-104 0,-48.29 64.5,-28.25 121.83,-21.43"/>
<polygon fill="black" stroke="black" points="122.49,-24.88 132.07,-20.35 121.75,-17.92 122.49,-24.88"/>
<text text-anchor="middle" x="52" y="-362.3" font-family="Times,serif" font-size="14.00">Phoned Home</text>
</g>
<!-- State Planned Reboot&#45;&gt;self_transition -->
<g id="edge45" class="edge">
<title>State Planned Reboot&#45;&gt;self_transition</title>
<path fill="none" stroke="black" d="M752.04,-701.04C739.02,-699.22 725.64,-697.47 713,-696 621.71,-685.39 597.54,-693.75 507,-678 481.19,-673.51 475.66,-668.28 450,-663 397.18,-652.12 381.18,-661.99 330,-645 237.15,-614.18 136,-638.83 136,-541 136,-541 136,-541 136,-104 136,-78.13 155.7,-56.2 174.64,-41.09"/>
<polygon fill="black" stroke="black" points="176.77,-43.87 182.65,-35.05 172.56,-38.28 176.77,-43.87"/>
<text text-anchor="middle" x="192.5" y="-362.3" font-family="Times,serif" font-size="14.00">Planned Reboot</text>
</g>
<!-- State Booting New Kernel -->
<g id="node4" class="node">
<title>State Booting New Kernel</title>
<ellipse fill="none" stroke="black" cx="1407" cy="-192" rx="131.88" ry="18"/>
<text text-anchor="middle" x="1407" y="-188.3" font-family="Times,serif" font-size="14.00">State Booting New Kernel</text>
</g>
<!-- State Booting New Kernel&#45;&gt;State Alive -->
<g id="edge3" class="edge">
<title>State Booting New Kernel&#45;&gt;State Alive</title>
<path fill="none" stroke="black" d="M1485.7,-206.51C1585.17,-228.27 1752.38,-281.52 1827,-402 1843.69,-428.94 1820.56,-441.49 1809,-471 1802.46,-487.69 1689.22,-752.89 1676,-765 1622.52,-813.99 1590.56,-795.32 1522,-819 1478.96,-833.87 1469.58,-842.69 1425,-852 1305.7,-876.91 1163.69,-884.2 1079.96,-886.27"/>
<polygon fill="black" stroke="black" points="1079.71,-882.77 1069.8,-886.5 1079.87,-889.77 1079.71,-882.77"/>
<text text-anchor="middle" x="1805" y="-536.3" font-family="Times,serif" font-size="14.00">Alive</text>
</g>
<!-- State Booting New Kernel&#45;&gt;State Machine Reclaim -->
<g id="edge5" class="edge">
<title>State Booting New Kernel&#45;&gt;State Machine Reclaim</title>
<path fill="none" stroke="black" d="M1415.98,-209.97C1435.83,-248.58 1482.85,-346.51 1498,-435 1510.82,-509.92 1465.29,-715.04 1408,-765 1392.46,-778.55 1351.27,-786.9 1308.96,-792.03"/>
<polygon fill="black" stroke="black" points="1308.32,-788.58 1298.78,-793.2 1309.12,-795.53 1308.32,-788.58"/>
<text text-anchor="middle" x="1560.5" y="-492.8" font-family="Times,serif" font-size="14.00">Machine Reclaim</text>
</g>
<!-- State Booting New Kernel&#45;&gt;State Planned Reboot -->
<g id="edge7" class="edge">
<title>State Booting New Kernel&#45;&gt;State Planned Reboot</title>
<path fill="none" stroke="black" d="M1409.34,-210.14C1416.03,-265.93 1430.02,-445.22 1352,-558 1269.36,-677.46 1190.64,-650.57 1048,-678 1006.1,-686.06 959.42,-693.73 920.04,-699.82"/>
<polygon fill="black" stroke="black" points="919.29,-696.39 909.93,-701.37 920.35,-703.31 919.29,-696.39"/>
<text text-anchor="middle" x="1457.5" y="-449.3" font-family="Times,serif" font-size="14.00">Planned Reboot</text>
</g>
<!-- State Crashing -->
<g id="node5" class="node">
<title>State Crashing</title>
<ellipse fill="none" stroke="black" cx="705" cy="-105" rx="80.69" ry="18"/>
<text text-anchor="middle" x="705" y="-101.3" font-family="Times,serif" font-size="14.00">State Crashing</text>
</g>
<!-- State Booting New Kernel&#45;&gt;State Crashing -->
<g id="edge4" class="edge">
<title>State Booting New Kernel&#45;&gt;State Crashing</title>
<path fill="none" stroke="black" d="M1366.01,-174.8C1334.95,-163.28 1290.96,-148.56 1251,-141 1093,-111.09 905.2,-105.43 796.11,-105.03"/>
<polygon fill="black" stroke="black" points="795.81,-101.53 785.8,-105.01 795.79,-108.53 795.81,-101.53"/>
<text text-anchor="middle" x="1337" y="-144.8" font-family="Times,serif" font-size="14.00">Crashed</text>
</g>
<!-- State Booting New Kernel&#45;&gt;State Phoned Home -->
<g id="edge6" class="edge">
<title>State Booting New Kernel&#45;&gt;State Phoned Home</title>
<path fill="none" stroke="black" d="M1471.62,-176.19C1537.81,-161.03 1640.37,-137.53 1708.33,-121.96"/>
<polygon fill="black" stroke="black" points="1709.14,-125.37 1718.1,-119.72 1707.57,-118.54 1709.14,-125.37"/>
<text text-anchor="middle" x="1664" y="-144.8" font-family="Times,serif" font-size="14.00">Phoned Home</text>
</g>
<!-- State Crashing&#45;&gt;State Machine Reclaim -->
<g id="edge8" class="edge">
<title>State Crashing&#45;&gt;State Machine Reclaim</title>
<path fill="none" stroke="black" d="M782.07,-110.47C929.51,-120.05 1237,-145.49 1237,-191 1237,-323.5 1237,-323.5 1237,-323.5 1237,-390.23 1222.76,-419.35 1265,-471 1302.98,-517.45 1356.53,-472.2 1390,-522 1398.92,-535.28 1393.78,-542.45 1390,-558 1364.43,-663.1 1351.92,-704.88 1262,-765 1254.37,-770.1 1245.89,-774.95 1237.54,-779.32"/>
<polygon fill="black" stroke="black" points="1235.92,-776.22 1228.58,-783.87 1239.08,-782.46 1235.92,-776.22"/>
<text text-anchor="middle" x="1326.5" y="-449.3" font-family="Times,serif" font-size="14.00">Machine Reclaim</text>
</g>
<!-- State Crashing&#45;&gt;State Planned Reboot -->
<g id="edge10" class="edge">
<title>State Crashing&#45;&gt;State Planned Reboot</title>
<path fill="none" stroke="black" d="M688.14,-122.92C673.96,-139.01 656,-164.6 656,-191 656,-323.5 656,-323.5 656,-323.5 656,-359.62 639.71,-366.19 635,-402 628.9,-448.38 639.1,-462.66 661,-504 675.49,-531.36 680.95,-538.5 705,-558 743.44,-589.18 773.26,-570.21 804,-609 821.36,-630.91 827.3,-662.92 829.24,-685.62"/>
<polygon fill="black" stroke="black" points="825.75,-685.89 829.9,-695.64 832.74,-685.43 825.75,-685.89"/>
<text text-anchor="middle" x="691.5" y="-405.8" font-family="Times,serif" font-size="14.00">Planned Reboot</text>
</g>
<!-- State Crashing&#45;&gt;State PXE Booting -->
<g id="edge9" class="edge">
<title>State Crashing&#45;&gt;State PXE Booting</title>
<path fill="none" stroke="black" d="M627.07,-109.74C601.35,-114.46 574.2,-123.63 554,-141 485.49,-199.93 533.87,-258.19 479,-330 470.9,-340.59 462.28,-336.83 455,-348 439.94,-371.13 441,-380.9 441,-408.5 441,-541 441,-541 441,-541 441,-560.28 439.7,-581.98 438.43,-598.63"/>
<polygon fill="black" stroke="black" points="434.93,-598.51 437.61,-608.76 441.9,-599.08 434.93,-598.51"/>
<text text-anchor="middle" x="500.5" y="-362.3" font-family="Times,serif" font-size="14.00">PXE Booting</text>
</g>
<!-- State Crashing&#45;&gt;State Preparing -->
<g id="edge11" class="edge">
<title>State Crashing&#45;&gt;State Preparing</title>
<path fill="none" stroke="black" d="M627.43,-109.98C571.37,-114.32 501.67,-123.18 479,-141 463.35,-153.3 365.37,-425.63 334.39,-512.58"/>
<polygon fill="black" stroke="black" points="331.09,-511.41 331.03,-522 337.68,-513.76 331.09,-511.41"/>
<text text-anchor="middle" x="442" y="-318.8" font-family="Times,serif" font-size="14.00">Preparing</text>
</g>
<!-- State Phoned Home&#45;&gt;State Machine Reclaim -->
<g id="edge39" class="edge">
<title>State Phoned Home&#45;&gt;State Machine Reclaim</title>
<path fill="none" stroke="black" d="M1841.4,-119.29C1878.06,-131.1 1917,-152.67 1917,-191 1917,-410.5 1917,-410.5 1917,-410.5 1917,-436.48 1635.14,-753.19 1612,-765 1585.94,-778.29 1428.53,-788.64 1314.06,-794.53"/>
<polygon fill="black" stroke="black" points="1313.62,-791.05 1303.81,-795.05 1313.98,-798.04 1313.62,-791.05"/>
<text text-anchor="middle" x="1963.5" y="-449.3" font-family="Times,serif" font-size="14.00">Machine Reclaim</text>
</g>
<!-- State Phoned Home&#45;&gt;State Planned Reboot -->
<g id="edge41" class="edge">
<title>State Phoned Home&#45;&gt;State Planned Reboot</title>
<path fill="none" stroke="black" d="M1772.87,-123.25C1751.52,-194.92 1670.08,-467.19 1654,-504 1636.15,-544.87 1630.25,-554.94 1604,-591 1584.93,-617.2 1583.99,-630.5 1555,-645 1452.26,-696.38 1130.06,-709.08 951.74,-712.12"/>
<polygon fill="black" stroke="black" points="951.46,-708.63 941.52,-712.29 951.57,-715.63 951.46,-708.63"/>
<text text-anchor="middle" x="1743.5" y="-405.8" font-family="Times,serif" font-size="14.00">Planned Reboot</text>
</g>
<!-- State Phoned Home&#45;&gt;self_transition -->
<g id="edge40" class="edge">
<title>State Phoned Home&#45;&gt;self_transition</title>
<path fill="none" stroke="black" d="M1738.89,-88.32C1707.16,-76.43 1660.96,-60.98 1619,-54 1489.26,-32.43 584.19,-22.41 296.55,-19.75"/>
<polygon fill="black" stroke="black" points="296.2,-16.25 286.17,-19.66 296.13,-23.25 296.2,-16.25"/>
<text text-anchor="middle" x="1731" y="-57.8" font-family="Times,serif" font-size="14.00">Phoned Home</text>
</g>
<!-- State PXE Booting&#45;&gt;State Alive -->
<g id="edge33" class="edge">
<title>State PXE Booting&#45;&gt;State Alive</title>
<path fill="none" stroke="black" d="M355.99,-637.17C341.54,-642.52 328.18,-650.67 319,-663 291.74,-699.61 299.4,-732.06 331,-765 373.2,-808.98 778.6,-860.4 941.11,-879.42"/>
<polygon fill="black" stroke="black" points="941.12,-882.95 951.46,-880.63 941.93,-876 941.12,-882.95"/>
<text text-anchor="middle" x="349" y="-753.8" font-family="Times,serif" font-size="14.00">Alive</text>
</g>
<!-- State PXE Booting&#45;&gt;State Machine Reclaim -->
<g id="edge35" class="edge">
<title>State PXE Booting&#45;&gt;State Machine Reclaim</title>
<path fill="none" stroke="black" d="M459.66,-644.54C474.83,-654.8 495.14,-667.9 514,-678 531.54,-687.4 539,-684.17 555,-696 571.98,-708.56 567.34,-722.12 586,-732 628.35,-754.44 914,-779.16 1077.56,-791.7"/>
<polygon fill="black" stroke="black" points="1077.44,-795.2 1087.67,-792.47 1077.97,-788.22 1077.44,-795.2"/>
<text text-anchor="middle" x="647.5" y="-710.3" font-family="Times,serif" font-size="14.00">Machine Reclaim</text>
</g>
<!-- State PXE Booting&#45;&gt;State Planned Reboot -->
<g id="edge37" class="edge">
<title>State PXE Booting&#45;&gt;State Planned Reboot</title>
<path fill="none" stroke="black" d="M472.38,-643.72C484.82,-649.43 498.69,-656.16 511,-663 521.67,-668.93 522.5,-673.91 534,-678 605.59,-703.46 628.57,-686.92 704,-696 715.1,-697.34 726.74,-698.81 738.28,-700.31"/>
<polygon fill="black" stroke="black" points="738,-703.81 748.37,-701.64 738.91,-696.87 738,-703.81"/>
<text text-anchor="middle" x="590.5" y="-666.8" font-family="Times,serif" font-size="14.00">Planned Reboot</text>
</g>
<!-- State PXE Booting&#45;&gt;State Crashing -->
<g id="edge34" class="edge">
<title>State PXE Booting&#45;&gt;State Crashing</title>
<path fill="none" stroke="black" d="M449.38,-609.08C482.94,-564.88 568,-441.25 568,-323.5 568,-323.5 568,-323.5 568,-191 568,-154.54 603.47,-133.18 638.31,-120.99"/>
<polygon fill="black" stroke="black" points="639.67,-124.22 648.09,-117.79 637.5,-117.57 639.67,-124.22"/>
<text text-anchor="middle" x="596" y="-362.3" font-family="Times,serif" font-size="14.00">Crashed</text>
</g>
<!-- State PXE Booting&#45;&gt;State Preparing -->
<g id="edge38" class="edge">
<title>State PXE Booting&#45;&gt;State Preparing</title>
<path fill="none" stroke="black" d="M388.13,-611.13C376.44,-606 364.57,-599.38 355,-591 347.5,-584.44 341.34,-575.53 336.59,-567.06"/>
<polygon fill="black" stroke="black" points="339.69,-565.43 331.99,-558.16 333.47,-568.65 339.69,-565.43"/>
<text text-anchor="middle" x="391" y="-579.8" font-family="Times,serif" font-size="14.00">Preparing</text>
</g>
<!-- State PXE Booting&#45;&gt;self_transition -->
<g id="edge36" class="edge">
<title>State PXE Booting&#45;&gt;self_transition</title>
<path fill="none" stroke="black" d="M346.99,-619.86C304.61,-611.92 257.5,-594.71 231,-558 176.07,-481.91 304.99,-426.13 253,-348 241.52,-330.75 221.65,-347.13 210,-330 197.5,-311.62 209,-302.23 209,-280 209,-280 209,-280 209,-104 209,-84.75 209,-63.05 209,-46.4"/>
<polygon fill="black" stroke="black" points="212.5,-46.26 209,-36.26 205.5,-46.26 212.5,-46.26"/>
<text text-anchor="middle" x="255.5" y="-318.8" font-family="Times,serif" font-size="14.00">PXE Booting</text>
</g>
<!-- State Preparing&#45;&gt;State Alive -->
<g id="edge47" class="edge">
<title>State Preparing&#45;&gt;State Alive</title>
<path fill="none" stroke="black" d="M283.86,-555.86C259.78,-566.78 231.03,-584.08 215,-609 201.4,-630.15 198.68,-660.99 206,-678 210.63,-688.77 352.3,-814.21 363,-819 464.13,-864.24 790.88,-880.11 936.65,-885.03"/>
<polygon fill="black" stroke="black" points="936.72,-888.53 946.83,-885.37 936.95,-881.54 936.72,-888.53"/>
<text text-anchor="middle" x="279" y="-710.3" font-family="Times,serif" font-size="14.00">Alive</text>
</g>
<!-- State Preparing&#45;&gt;State Machine Reclaim -->
<g id="edge49" class="edge">
<title>State Preparing&#45;&gt;State Machine Reclaim</title>
<path fill="none" stroke="black" d="M304.49,-557.59C267.55,-588.41 195.19,-653.55 212,-678 242.61,-722.51 386.06,-754.25 439,-765 552.53,-788.05 844.32,-776.77 960,-783 999.24,-785.11 1042.17,-788.08 1080.31,-790.94"/>
<polygon fill="black" stroke="black" points="1080.18,-794.44 1090.42,-791.7 1080.71,-787.46 1080.18,-794.44"/>
<text text-anchor="middle" x="273.5" y="-666.8" font-family="Times,serif" font-size="14.00">Machine Reclaim</text>
</g>
<!-- State Preparing&#45;&gt;State Planned Reboot -->
<g id="edge50" class="edge">
<title>State Preparing&#45;&gt;State Planned Reboot</title>
<path fill="none" stroke="black" d="M385.67,-552.73C419.87,-559.41 463.35,-568.01 502,-576 570.12,-590.08 593.92,-575.72 655,-609 674.87,-619.83 671,-634.42 691,-645 728.99,-665.08 748.67,-641.71 786,-663 796.61,-669.05 805.96,-678.62 813.28,-687.78"/>
<polygon fill="black" stroke="black" points="810.61,-690.06 819.41,-695.96 816.21,-685.86 810.61,-690.06"/>
<text text-anchor="middle" x="747.5" y="-623.3" font-family="Times,serif" font-size="14.00">Planned Reboot</text>
</g>
<!-- State Preparing&#45;&gt;State Crashing -->
<g id="edge48" class="edge">
<title>State Preparing&#45;&gt;State Crashing</title>
<path fill="none" stroke="black" d="M324.36,-521.75C323.77,-504.58 323,-477.47 323,-454 323,-454 323,-454 323,-191 323,-131.4 502.44,-113.57 615.35,-108.25"/>
<polygon fill="black" stroke="black" points="615.55,-111.74 625.39,-107.8 615.24,-104.75 615.55,-111.74"/>
<text text-anchor="middle" x="353" y="-318.8" font-family="Times,serif" font-size="14.00">Crashed</text>
</g>
<!-- State Registering -->
<g id="node11" class="node">
<title>State Registering</title>
<ellipse fill="none" stroke="black" cx="964" cy="-453" rx="92.88" ry="18"/>
<text text-anchor="middle" x="964" y="-449.3" font-family="Times,serif" font-size="14.00">State Registering</text>
</g>
<!-- State Preparing&#45;&gt;State Registering -->
<g id="edge51" class="edge">
<title>State Preparing&#45;&gt;State Registering</title>
<path fill="none" stroke="black" d="M410.12,-538.28C503.03,-536.16 655.8,-528.77 785,-504 806.95,-499.79 811.53,-495.22 833,-489 854.96,-482.64 879.11,-476.07 900.64,-470.36"/>
<polygon fill="black" stroke="black" points="901.55,-473.74 910.32,-467.8 899.76,-466.97 901.55,-473.74"/>
<text text-anchor="middle" x="875" y="-492.8" font-family="Times,serif" font-size="14.00">Registering</text>
</g>
<!-- State Initial -->
<g id="node9" class="node">
<title>State Initial</title>
<ellipse fill="none" stroke="black" cx="1746" cy="-975" rx="65.79" ry="18"/>
<text text-anchor="middle" x="1746" y="-971.3" font-family="Times,serif" font-size="14.00">State Initial</text>
</g>
<!-- State Initial&#45;&gt;State Alive -->
<g id="edge12" class="edge">
<title>State Initial&#45;&gt;State Alive</title>
<path fill="none" stroke="black" d="M1680.54,-973.42C1579.29,-971.69 1378.88,-964.96 1211,-939 1158.64,-930.9 1100,-915.79 1059.25,-904.28"/>
<polygon fill="black" stroke="black" points="1060.13,-900.89 1049.55,-901.52 1058.21,-907.63 1060.13,-900.89"/>
<text text-anchor="middle" x="1229" y="-927.8" font-family="Times,serif" font-size="14.00">Alive</text>
</g>
<!-- State Initial&#45;&gt;State Machine Reclaim -->
<g id="edge16" class="edge">
<title>State Initial&#45;&gt;State Machine Reclaim</title>
<path fill="none" stroke="black" d="M1704.36,-961.07C1607.02,-930.85 1364.31,-855.5 1251.44,-820.46"/>
<polygon fill="black" stroke="black" points="1252.18,-817.02 1241.59,-817.4 1250.1,-823.7 1252.18,-817.02"/>
<text text-anchor="middle" x="1585.5" y="-884.3" font-family="Times,serif" font-size="14.00">Machine Reclaim</text>
</g>
<!-- State Initial&#45;&gt;State Planned Reboot -->
<g id="edge19" class="edge">
<title>State Initial&#45;&gt;State Planned Reboot</title>
<path fill="none" stroke="black" d="M1680.34,-974.48C1541.4,-974.18 1208.16,-966.58 937,-906 850.07,-886.58 797.83,-922.96 744,-852 715.09,-813.89 762.73,-765.84 797.85,-737.95"/>
<polygon fill="black" stroke="black" points="800.23,-740.53 806.01,-731.65 795.95,-734.99 800.23,-740.53"/>
<text text-anchor="middle" x="800.5" y="-840.8" font-family="Times,serif" font-size="14.00">Planned Reboot</text>
</g>
<!-- State Initial&#45;&gt;State Booting New Kernel -->
<g id="edge13" class="edge">
<title>State Initial&#45;&gt;State Booting New Kernel</title>
<path fill="none" stroke="black" d="M1800.8,-964.99C1868.83,-952.22 1976,-926.2 1976,-889 1976,-889 1976,-889 1976,-626 1976,-603.77 1971.72,-597.59 1977,-576 1992.87,-511.12 2063.5,-492.19 2029,-435 1986.18,-364.01 1775.14,-293.79 1699,-261 1657.17,-242.99 1646.09,-239.39 1602,-228 1570.3,-219.81 1535.21,-212.87 1503.63,-207.39"/>
<polygon fill="black" stroke="black" points="1503.96,-203.89 1493.51,-205.66 1502.78,-210.79 1503.96,-203.89"/>
<text text-anchor="middle" x="2049" y="-579.8" font-family="Times,serif" font-size="14.00">Booting New Kernel</text>
</g>
<!-- State Initial&#45;&gt;State Crashing -->
<g id="edge14" class="edge">
<title>State Initial&#45;&gt;State Crashing</title>
<path fill="none" stroke="black" d="M1811.55,-973.02C1922.41,-969.56 2135,-954.41 2135,-889 2135,-889 2135,-889 2135,-626 2135,-570.05 2059.57,-441.57 2020,-402 1800.16,-182.16 1679.72,-177.73 1371,-141 1166.15,-116.63 923.83,-109.23 795.43,-106.98"/>
<polygon fill="black" stroke="black" points="795.31,-103.48 785.25,-106.81 795.19,-110.48 795.31,-103.48"/>
<text text-anchor="middle" x="2146" y="-536.3" font-family="Times,serif" font-size="14.00">Crashed</text>
</g>
<!-- State Initial&#45;&gt;State Phoned Home -->
<g id="edge18" class="edge">
<title>State Initial&#45;&gt;State Phoned Home</title>
<path fill="none" stroke="black" d="M1811.72,-973.49C1910.12,-971.86 2090.44,-965.25 2149,-939 2178.55,-925.75 2202,-921.38 2202,-889 2202,-889 2202,-889 2202,-191 2202,-127.5 2016.85,-110.8 1891.25,-106.79"/>
<polygon fill="black" stroke="black" points="1891.28,-103.29 1881.18,-106.49 1891.07,-110.28 1891.28,-103.29"/>
<text text-anchor="middle" x="2252" y="-536.3" font-family="Times,serif" font-size="14.00">Phoned Home</text>
</g>
<!-- State Initial&#45;&gt;State PXE Booting -->
<g id="edge17" class="edge">
<title>State Initial&#45;&gt;State PXE Booting</title>
<path fill="none" stroke="black" d="M1680.68,-972.35C1407.15,-964.74 363.72,-928.67 272,-819 241.32,-782.31 249.41,-718.86 306,-663 316.54,-652.59 329.83,-645.2 343.86,-639.95"/>
<polygon fill="black" stroke="black" points="345.31,-643.16 353.67,-636.66 343.08,-636.53 345.31,-643.16"/>
<text text-anchor="middle" x="317.5" y="-797.3" font-family="Times,serif" font-size="14.00">PXE Booting</text>
</g>
<!-- State Initial&#45;&gt;State Preparing -->
<g id="edge20" class="edge">
<title>State Initial&#45;&gt;State Preparing</title>
<path fill="none" stroke="black" d="M1680.34,-974.14C1372.14,-974.35 84,-970.39 84,-889 84,-889 84,-889 84,-669.5 84,-596.29 171.67,-564.64 241.26,-551.06"/>
<polygon fill="black" stroke="black" points="242.19,-554.45 251.38,-549.18 240.91,-547.56 242.19,-554.45"/>
<text text-anchor="middle" x="120" y="-753.8" font-family="Times,serif" font-size="14.00">Preparing</text>
</g>
<!-- State Installing -->
<g id="node10" class="node">
<title>State Installing</title>
<ellipse fill="none" stroke="black" cx="1059" cy="-279" rx="82.59" ry="18"/>
<text text-anchor="middle" x="1059" y="-275.3" font-family="Times,serif" font-size="14.00">State Installing</text>
</g>
<!-- State Initial&#45;&gt;State Installing -->
<g id="edge15" class="edge">
<title>State Initial&#45;&gt;State Installing</title>
<path fill="none" stroke="black" d="M1804.38,-966.48C1849.39,-957.01 1904,-935.88 1904,-889 1904,-889 1904,-889 1904,-713 1904,-681.22 1862.19,-520.66 1809,-435 1798.22,-417.64 1795.08,-411.52 1777,-402 1720.92,-372.48 1312.23,-314.36 1137.68,-290.55"/>
<polygon fill="black" stroke="black" points="1137.92,-287.05 1127.54,-289.17 1136.97,-293.99 1137.92,-287.05"/>
<text text-anchor="middle" x="1924" y="-623.3" font-family="Times,serif" font-size="14.00">Installing</text>
</g>
<!-- State Initial&#45;&gt;State Registering -->
<g id="edge21" class="edge">
<title>State Initial&#45;&gt;State Registering</title>
<path fill="none" stroke="black" d="M1746,-956.74C1746,-939.57 1746,-912.46 1746,-889 1746,-889 1746,-889 1746,-756.5 1746,-638.88 1600.79,-714.63 1506,-645 1446.41,-601.23 1459.08,-557.09 1394,-522 1337.55,-491.56 1166.99,-471.6 1058.4,-461.6"/>
<polygon fill="black" stroke="black" points="1058.7,-458.11 1048.42,-460.69 1058.06,-465.08 1058.7,-458.11"/>
<text text-anchor="middle" x="1785" y="-710.3" font-family="Times,serif" font-size="14.00">Registering</text>
</g>
<!-- State Waiting -->
<g id="node12" class="node">
<title>State Waiting</title>
<ellipse fill="none" stroke="black" cx="1059" cy="-366" rx="74.19" ry="18"/>
<text text-anchor="middle" x="1059" y="-362.3" font-family="Times,serif" font-size="14.00">State Waiting</text>
</g>
<!-- State Initial&#45;&gt;State Waiting -->
<g id="edge22" class="edge">
<title>State Initial&#45;&gt;State Waiting</title>
<path fill="none" stroke="black" d="M1788.02,-961.05C1819.8,-948.35 1858,-925.49 1858,-889 1858,-889 1858,-889 1858,-756.5 1858,-742.62 1782.03,-531.59 1772,-522 1702.79,-455.78 1452.44,-417.98 1358,-402 1281.78,-389.11 1261.76,-393.17 1185,-384 1167.69,-381.93 1149.06,-379.52 1131.58,-377.18"/>
<polygon fill="black" stroke="black" points="1131.82,-373.68 1121.44,-375.81 1130.88,-380.61 1131.82,-373.68"/>
<text text-anchor="middle" x="1859.5" y="-666.8" font-family="Times,serif" font-size="14.00">Waiting</text>
</g>
<!-- State Installing&#45;&gt;State Alive -->
<g id="edge23" class="edge">
<title>State Installing&#45;&gt;State Alive</title>
<path fill="none" stroke="black" d="M1023.91,-295.38C976.94,-318.14 895.65,-365.71 862,-435 855.01,-449.39 854.12,-457.08 862,-471 869.66,-484.53 882.5,-476.69 892,-489 938.28,-549.01 986.92,-779.63 1002.72,-859.54"/>
<polygon fill="black" stroke="black" points="999.36,-860.65 1004.72,-869.79 1006.23,-859.3 999.36,-860.65"/>
<text text-anchor="middle" x="954" y="-579.8" font-family="Times,serif" font-size="14.00">Alive</text>
</g>
<!-- State Installing&#45;&gt;State Machine Reclaim -->
<g id="edge26" class="edge">
<title>State Installing&#45;&gt;State Machine Reclaim</title>
<path fill="none" stroke="black" d="M1102.34,-294.34C1112.84,-299.5 1123.25,-306.27 1131,-315 1179.7,-369.88 1148.09,-407.59 1185,-471 1211.73,-516.92 1225.27,-525.1 1267,-558 1279.21,-567.63 1288.5,-562.98 1297,-576 1342.43,-645.64 1318.42,-651.91 1308,-678 1291.32,-719.75 1252.81,-755.37 1224.72,-777.16"/>
<polygon fill="black" stroke="black" points="1222.6,-774.37 1216.74,-783.2 1226.82,-779.96 1222.6,-774.37"/>
<text text-anchor="middle" x="1328.5" y="-536.3" font-family="Times,serif" font-size="14.00">Machine Reclaim</text>
</g>
<!-- State Installing&#45;&gt;State Planned Reboot -->
<g id="edge27" class="edge">
<title>State Installing&#45;&gt;State Planned Reboot</title>
<path fill="none" stroke="black" d="M988,-288.29C926.52,-295.9 845.4,-307.16 832,-315 782.27,-344.09 791.84,-375.38 752,-417 718,-452.52 688.55,-444.33 668,-489 665.21,-495.06 664.12,-498.58 668,-504 682.49,-524.22 865.51,-555.78 880,-576 904.83,-610.66 875.37,-658.99 852.29,-688.02"/>
<polygon fill="black" stroke="black" points="849.36,-686.07 845.7,-696.02 854.76,-690.52 849.36,-686.07"/>
<text text-anchor="middle" x="724.5" y="-492.8" font-family="Times,serif" font-size="14.00">Planned Reboot</text>
</g>
<!-- State Installing&#45;&gt;State Booting New Kernel -->
<g id="edge24" class="edge">
<title>State Installing&#45;&gt;State Booting New Kernel</title>
<path fill="none" stroke="black" d="M1111.85,-265.09C1171.63,-250.49 1269.26,-226.64 1335.74,-210.41"/>
<polygon fill="black" stroke="black" points="1336.83,-213.74 1345.72,-207.97 1335.17,-206.94 1336.83,-213.74"/>
<text text-anchor="middle" x="1325" y="-231.8" font-family="Times,serif" font-size="14.00">Booting New Kernel</text>
</g>
<!-- State Installing&#45;&gt;State Crashing -->
<g id="edge25" class="edge">
<title>State Installing&#45;&gt;State Crashing</title>
<path fill="none" stroke="black" d="M1032.89,-261.89C987.92,-234.6 892.47,-178.58 807,-141 792.24,-134.51 775.86,-128.42 760.63,-123.21"/>
<polygon fill="black" stroke="black" points="761.41,-119.78 750.82,-119.91 759.18,-126.41 761.41,-119.78"/>
<text text-anchor="middle" x="972" y="-188.3" font-family="Times,serif" font-size="14.00">Crashed</text>
</g>
<!-- State Registering&#45;&gt;State Alive -->
<g id="edge52" class="edge">
<title>State Registering&#45;&gt;State Alive</title>
<path fill="none" stroke="black" d="M966.51,-471.17C967.98,-480.83 969.95,-493.12 972,-504 972.87,-508.62 1008,-664.8 1008,-669.5 1008,-802 1008,-802 1008,-802 1008,-821.25 1008,-842.95 1008,-859.6"/>
<polygon fill="black" stroke="black" points="1004.5,-859.74 1008,-869.74 1011.5,-859.74 1004.5,-859.74"/>
<text text-anchor="middle" x="1026" y="-666.8" font-family="Times,serif" font-size="14.00">Alive</text>
</g>
<!-- State Registering&#45;&gt;State Machine Reclaim -->
<g id="edge54" class="edge">
<title>State Registering&#45;&gt;State Machine Reclaim</title>
<path fill="none" stroke="black" d="M969.52,-471.13C976.63,-492.21 989.99,-528.8 1006,-558 1028.83,-599.63 1038.05,-608.15 1068,-645 1108.07,-694.3 1128.06,-698.31 1165,-750 1170.22,-757.3 1175.14,-765.73 1179.31,-773.56"/>
<polygon fill="black" stroke="black" points="1176.33,-775.41 1184.01,-782.71 1182.55,-772.21 1176.33,-775.41"/>
<text text-anchor="middle" x="1129.5" y="-623.3" font-family="Times,serif" font-size="14.00">Machine Reclaim</text>
</g>
<!-- State Registering&#45;&gt;State Planned Reboot -->
<g id="edge55" class="edge">
<title>State Registering&#45;&gt;State Planned Reboot</title>
<path fill="none" stroke="black" d="M950.28,-470.96C941.44,-481.25 929.33,-494.24 917,-504 866.73,-543.79 824.08,-520.49 792,-576 788.66,-581.77 788.38,-585.4 792,-591 802.59,-607.37 820.38,-593.34 832,-609 848.33,-631.01 844.6,-663.47 838.85,-686.26"/>
<polygon fill="black" stroke="black" points="835.45,-685.4 836.13,-695.98 842.2,-687.29 835.45,-685.4"/>
<text text-anchor="middle" x="848.5" y="-579.8" font-family="Times,serif" font-size="14.00">Planned Reboot</text>
</g>
<!-- State Registering&#45;&gt;State Crashing -->
<g id="edge53" class="edge">
<title>State Registering&#45;&gt;State Crashing</title>
<path fill="none" stroke="black" d="M951.16,-434.84C908.86,-378.34 773.78,-197.88 723.82,-131.14"/>
<polygon fill="black" stroke="black" points="726.41,-128.76 717.62,-122.85 720.81,-132.96 726.41,-128.76"/>
<text text-anchor="middle" x="875" y="-275.3" font-family="Times,serif" font-size="14.00">Crashed</text>
</g>
<!-- State Registering&#45;&gt;State Waiting -->
<g id="edge56" class="edge">
<title>State Registering&#45;&gt;State Waiting</title>
<path fill="none" stroke="black" d="M981,-434.97C991,-425.12 1004,-412.62 1016,-402 1020.53,-397.99 1025.42,-393.85 1030.22,-389.87"/>
<polygon fill="black" stroke="black" points="1032.62,-392.43 1038.15,-383.4 1028.19,-387.01 1032.62,-392.43"/>
<text text-anchor="middle" x="1043.5" y="-405.8" font-family="Times,serif" font-size="14.00">Waiting</text>
</g>
<!-- State Waiting&#45;&gt;State Alive -->
<g id="edge57" class="edge">
<title>State Waiting&#45;&gt;State Alive</title>
<path fill="none" stroke="black" d="M1120.95,-375.91C1237.21,-392.77 1477,-428.26 1483,-435 1488.1,-440.73 1485.15,-496.37 1486,-504 1494.31,-578.29 1516,-594.75 1516,-669.5 1516,-802 1516,-802 1516,-802 1516,-845.89 1217.2,-872.46 1077.92,-882.45"/>
<polygon fill="black" stroke="black" points="1077.5,-878.97 1067.77,-883.17 1077.99,-885.96 1077.5,-878.97"/>
<text text-anchor="middle" x="1533" y="-623.3" font-family="Times,serif" font-size="14.00">Alive</text>
</g>
<!-- State Waiting&#45;&gt;State Machine Reclaim -->
<g id="edge60" class="edge">
<title>State Waiting&#45;&gt;State Machine Reclaim</title>
<path fill="none" stroke="black" d="M1072.68,-383.73C1077.11,-389.41 1081.92,-395.86 1086,-402 1119.92,-453.06 1131.74,-464.89 1154,-522 1165.43,-551.33 1153.68,-564.08 1170,-591 1176.37,-601.51 1185.83,-597.85 1191,-609 1215.9,-662.77 1206.53,-734.54 1198.59,-772.98"/>
<polygon fill="black" stroke="black" points="1195.14,-772.38 1196.42,-782.9 1201.98,-773.88 1195.14,-772.38"/>
<text text-anchor="middle" x="1231.5" y="-579.8" font-family="Times,serif" font-size="14.00">Machine Reclaim</text>
</g>
<!-- State Waiting&#45;&gt;State Planned Reboot -->
<g id="edge61" class="edge">
<title>State Waiting&#45;&gt;State Planned Reboot</title>
<path fill="none" stroke="black" d="M1066.14,-384.15C1068.13,-389.74 1070.01,-396.04 1071,-402 1076.05,-432.33 1077.18,-442.36 1066,-471 1044.96,-524.91 953.35,-642.05 908,-678 900.83,-683.69 892.58,-688.67 884.19,-692.95"/>
<polygon fill="black" stroke="black" points="882.59,-689.84 875.09,-697.32 885.62,-696.15 882.59,-689.84"/>
<text text-anchor="middle" x="1093.5" y="-536.3" font-family="Times,serif" font-size="14.00">Planned Reboot</text>
</g>
<!-- State Waiting&#45;&gt;State Crashing -->
<g id="edge58" class="edge">
<title>State Waiting&#45;&gt;State Crashing</title>
<path fill="none" stroke="black" d="M1036.86,-348.8C976.03,-304.3 806.29,-180.11 736.04,-128.71"/>
<polygon fill="black" stroke="black" points="737.73,-125.61 727.59,-122.53 733.6,-131.26 737.73,-125.61"/>
<text text-anchor="middle" x="920" y="-231.8" font-family="Times,serif" font-size="14.00">Crashed</text>
</g>
<!-- State Waiting&#45;&gt;State Installing -->
<g id="edge59" class="edge">
<title>State Waiting&#45;&gt;State Installing</title>
<path fill="none" stroke="black" d="M1059,-347.8C1059,-336.16 1059,-320.55 1059,-307.24"/>
<polygon fill="black" stroke="black" points="1062.5,-307.18 1059,-297.18 1055.5,-307.18 1062.5,-307.18"/>
<text text-anchor="middle" x="1093" y="-318.8" font-family="Times,serif" font-size="14.00">Installing</text>
</g>
</g>
</svg>
