<?xml version="1.0" encoding="UTF-8" standalone="no"?>
<!DOCTYPE svg PUBLIC "-//W3C//DTD SVG 1.1//EN"
 "http://www.w3.org/Graphics/SVG/1.1/DTD/svg11.dtd">
<!-- Generated by graphviz version 2.43.0 (0)
 -->
<!-- Title: fsm Pages: 1 -->
<svg width="1435pt" height="827pt"
 viewBox="0.00 0.00 1435.00 827.00" xmlns="http://www.w3.org/2000/svg" xmlns:xlink="http://www.w3.org/1999/xlink">
<g id="graph0" class="graph" transform="scale(1 1) rotate(0) translate(4 823)">
<title>fsm</title>
<polygon fill="white" stroke="transparent" points="-4,4 -4,-823 1431,-823 1431,4 -4,4"/>
<!-- Booting New Kernel -->
<g id="node1" class="node">
<title>Booting New Kernel</title>
<ellipse fill="none" stroke="black" cx="441" cy="-714" rx="103.98" ry="18"/>
<text text-anchor="middle" x="441" y="-710.3" font-family="Times,serif" font-size="14.00">Booting New Kernel</text>
</g>
<g id="node2" class="node">
<title></title>
<ellipse fill="none" stroke="black" cx="554" cy="-18" rx="27" ry="18"/>
</g>
<!-- Booting New Kernel&#45;&gt; -->
<g id="edge1" class="edge">
<title>Booting New Kernel&#45;&gt;</title>
<path fill="none" stroke="black" d="M338.96,-710.23C282.92,-706.34 212.85,-697.53 153,-678 124.44,-668.68 119.76,-660.47 94,-645 51.41,-619.42 0,-634.18 0,-584.5 0,-584.5 0,-584.5 0,-104 0,-41.27 70.81,-67.84 132,-54 271.42,-22.47 442.5,-18.64 516.71,-18.63"/>
<polygon fill="black" stroke="black" points="516.94,-22.13 526.94,-18.65 516.95,-15.13 516.94,-22.13"/>
<text text-anchor="middle" x="18" y="-362.3" font-family="Times,serif" font-size="14.00">Alive</text>
</g>
<!-- Machine Reclaim -->
<g id="node3" class="node">
<title>Machine Reclaim</title>
<ellipse fill="none" stroke="black" cx="680" cy="-627" rx="90.18" ry="18"/>
<text text-anchor="middle" x="680" y="-623.3" font-family="Times,serif" font-size="14.00">Machine Reclaim</text>
</g>
<!-- Booting New Kernel&#45;&gt;Machine Reclaim -->
<g id="edge2" class="edge">
<title>Booting New Kernel&#45;&gt;Machine Reclaim</title>
<path fill="none" stroke="black" d="M481.62,-697.42C508.12,-687.36 543.51,-674.12 575,-663 591.21,-657.28 608.9,-651.28 625.07,-645.9"/>
<polygon fill="black" stroke="black" points="626.53,-649.11 634.92,-642.64 624.32,-642.46 626.53,-649.11"/>
<text text-anchor="middle" x="636.5" y="-666.8" font-family="Times,serif" font-size="14.00">Machine Reclaim</text>
</g>
<!-- Phoned Home -->
<g id="node4" class="node">
<title>Phoned Home</title>
<ellipse fill="none" stroke="black" cx="360" cy="-540" rx="75.29" ry="18"/>
<text text-anchor="middle" x="360" y="-536.3" font-family="Times,serif" font-size="14.00">Phoned Home</text>
</g>
<!-- Booting New Kernel&#45;&gt;Phoned Home -->
<g id="edge3" class="edge">
<title>Booting New Kernel&#45;&gt;Phoned Home</title>
<path fill="none" stroke="black" d="M432.94,-695.88C418.75,-665.74 389.22,-603.04 372.41,-567.35"/>
<polygon fill="black" stroke="black" points="375.46,-565.61 368.03,-558.05 369.12,-568.59 375.46,-565.61"/>
<text text-anchor="middle" x="458" y="-623.3" font-family="Times,serif" font-size="14.00">Phoned Home</text>
</g>
<!-- Planned Reboot -->
<g id="node5" class="node">
<title>Planned Reboot</title>
<ellipse fill="none" stroke="black" cx="554" cy="-105" rx="83.69" ry="18"/>
<text text-anchor="middle" x="554" y="-101.3" font-family="Times,serif" font-size="14.00">Planned Reboot</text>
</g>
<!-- Booting New Kernel&#45;&gt;Planned Reboot -->
<g id="edge4" class="edge">
<title>Booting New Kernel&#45;&gt;Planned Reboot</title>
<path fill="none" stroke="black" d="M342.07,-708.27C279.29,-703.67 204.97,-694.82 178,-678 67.42,-609.05 29.78,-522.67 79,-402 106.24,-335.22 248.08,-210.99 310,-174 349.46,-150.43 363.83,-153.7 408,-141 433.76,-133.59 462.39,-126.49 487.42,-120.64"/>
<polygon fill="black" stroke="black" points="488.23,-124.04 497.19,-118.38 486.65,-117.22 488.23,-124.04"/>
<text text-anchor="middle" x="135.5" y="-405.8" font-family="Times,serif" font-size="14.00">Planned Reboot</text>
</g>
<!-- Machine Reclaim&#45;&gt;Phoned Home -->
<g id="edge10" class="edge">
<title>Machine Reclaim&#45;&gt;Phoned Home</title>
<path fill="none" stroke="black" d="M625.48,-612.63C606.25,-607.04 584.75,-599.78 566,-591 554.95,-585.83 554.32,-580.57 543,-576 542.82,-575.93 478.97,-563.72 426.75,-553.75"/>
<polygon fill="black" stroke="black" points="427.3,-550.29 416.82,-551.85 425.99,-557.17 427.3,-550.29"/>
<text text-anchor="middle" x="616" y="-579.8" font-family="Times,serif" font-size="14.00">Phoned Home</text>
</g>
<!-- PXE Booting -->
<g id="node7" class="node">
<title>PXE Booting</title>
<ellipse fill="none" stroke="black" cx="181" cy="-540" rx="69.59" ry="18"/>
<text text-anchor="middle" x="181" y="-536.3" font-family="Times,serif" font-size="14.00">PXE Booting</text>
</g>
<!-- Machine Reclaim&#45;&gt;PXE Booting -->
<g id="edge9" class="edge">
<title>Machine Reclaim&#45;&gt;PXE Booting</title>
<path fill="none" stroke="black" d="M601.02,-618.25C566.9,-615.07 526.51,-611.56 490,-609 470.3,-607.62 148.61,-605.31 135,-591 126.15,-581.69 133.15,-571.26 144.12,-562.34"/>
<polygon fill="black" stroke="black" points="146.18,-565.16 152.2,-556.44 142.06,-559.51 146.18,-565.16"/>
<text text-anchor="middle" x="180.5" y="-579.8" font-family="Times,serif" font-size="14.00">PXE Booting</text>
</g>
<!-- Preparing -->
<g id="node8" class="node">
<title>Preparing</title>
<ellipse fill="none" stroke="black" cx="528" cy="-453" rx="57.39" ry="18"/>
<text text-anchor="middle" x="528" y="-449.3" font-family="Times,serif" font-size="14.00">Preparing</text>
</g>
<!-- Machine Reclaim&#45;&gt;Preparing -->
<g id="edge11" class="edge">
<title>Machine Reclaim&#45;&gt;Preparing</title>
<path fill="none" stroke="black" d="M679.84,-608.54C678.75,-597.5 675.39,-583.88 666,-576 635.04,-550.01 512.13,-587.96 485,-558 464.24,-535.07 485.61,-500.72 504.93,-477.85"/>
<polygon fill="black" stroke="black" points="507.62,-480.09 511.61,-470.28 502.37,-475.46 507.62,-480.09"/>
<text text-anchor="middle" x="521" y="-536.3" font-family="Times,serif" font-size="14.00">Preparing</text>
</g>
<!-- Phoned Home&#45;&gt; -->
<g id="edge17" class="edge">
<title>Phoned Home&#45;&gt;</title>
<path fill="none" stroke="black" d="M355.9,-521.95C354.58,-516.26 353.17,-509.87 352,-504 335.39,-420.44 336.36,-398.61 320,-315 318.43,-306.96 316.89,-305.15 316,-297 313.07,-270.27 316,-263.39 316,-236.5 316,-236.5 316,-236.5 316,-104 316,-61.73 450.84,-34.93 517.53,-24.27"/>
<polygon fill="black" stroke="black" points="518.28,-27.69 527.62,-22.69 517.2,-20.78 518.28,-27.69"/>
<text text-anchor="middle" x="366" y="-275.3" font-family="Times,serif" font-size="14.00">Phoned Home</text>
</g>
<!-- Phoned Home&#45;&gt;Machine Reclaim -->
<g id="edge16" class="edge">
<title>Phoned Home&#45;&gt;Machine Reclaim</title>
<path fill="none" stroke="black" d="M377.7,-557.76C392.35,-571.47 411.47,-588.92 416,-591 445.61,-604.59 522.66,-613.83 585.92,-619.38"/>
<polygon fill="black" stroke="black" points="585.68,-622.88 595.94,-620.24 586.28,-615.9 585.68,-622.88"/>
<text text-anchor="middle" x="477.5" y="-579.8" font-family="Times,serif" font-size="14.00">Machine Reclaim</text>
</g>
<!-- Phoned Home&#45;&gt;Planned Reboot -->
<g id="edge18" class="edge">
<title>Phoned Home&#45;&gt;Planned Reboot</title>
<path fill="none" stroke="black" d="M358.2,-521.76C353.7,-475.08 343.94,-347.54 368,-315 382.54,-295.33 401.13,-312.56 420,-297 447.35,-274.45 440.25,-257.44 460,-228 483.45,-193.04 513.61,-154.94 533.36,-130.78"/>
<polygon fill="black" stroke="black" points="536.23,-132.79 539.88,-122.85 530.83,-128.35 536.23,-132.79"/>
<text text-anchor="middle" x="424.5" y="-318.8" font-family="Times,serif" font-size="14.00">Planned Reboot</text>
</g>
<!-- Planned Reboot&#45;&gt; -->
<g id="edge19" class="edge">
<title>Planned Reboot&#45;&gt;</title>
<path fill="none" stroke="black" d="M554,-86.8C554,-75.16 554,-59.55 554,-46.24"/>
<polygon fill="black" stroke="black" points="557.5,-46.18 554,-36.18 550.5,-46.18 557.5,-46.18"/>
<text text-anchor="middle" x="604" y="-57.8" font-family="Times,serif" font-size="14.00">Phoned Home</text>
</g>
<!-- Installing -->
<g id="node6" class="node">
<title>Installing</title>
<ellipse fill="none" stroke="black" cx="939" cy="-192" rx="54.69" ry="18"/>
<text text-anchor="middle" x="939" y="-188.3" font-family="Times,serif" font-size="14.00">Installing</text>
</g>
<!-- Installing&#45;&gt;Booting New Kernel -->
<g id="edge6" class="edge">
<title>Installing&#45;&gt;Booting New Kernel</title>
<path fill="none" stroke="black" d="M954.05,-209.63C958.09,-215.1 961.9,-221.46 964,-228 977.83,-271.17 969.8,-285.04 964,-330 943.22,-491.02 909.67,-548.64 779,-645 749.03,-667.1 737.89,-668.1 702,-678 651.6,-691.9 594.14,-700.37 545.99,-705.48"/>
<polygon fill="black" stroke="black" points="545.45,-702.02 535.86,-706.52 546.17,-708.98 545.45,-702.02"/>
<text text-anchor="middle" x="1016" y="-449.3" font-family="Times,serif" font-size="14.00">Booting New Kernel</text>
</g>
<!-- Installing&#45;&gt; -->
<g id="edge5" class="edge">
<title>Installing&#45;&gt;</title>
<path fill="none" stroke="black" d="M933.87,-174.06C929.8,-163.24 923.09,-149.67 913,-141 822.19,-62.94 771.41,-92.43 658,-54 634.28,-45.96 607.49,-36.95 587.04,-30.08"/>
<polygon fill="black" stroke="black" points="588.15,-26.76 577.55,-26.9 585.92,-33.4 588.15,-26.76"/>
<text text-anchor="middle" x="907" y="-101.3" font-family="Times,serif" font-size="14.00">Alive</text>
</g>
<!-- Installing&#45;&gt;Machine Reclaim -->
<g id="edge7" class="edge">
<title>Installing&#45;&gt;Machine Reclaim</title>
<path fill="none" stroke="black" d="M907.88,-207.02C858.42,-230.51 760.95,-281.79 697,-348 673.52,-372.31 658.41,-383.84 665,-417 673.16,-458.04 679.36,-468.18 701,-504 706.39,-512.91 712.45,-512.21 716,-522 721.45,-537.04 719.58,-542.41 716,-558 712.57,-572.94 704.98,-588.15 697.65,-600.38"/>
<polygon fill="black" stroke="black" points="694.53,-598.78 692.17,-609.11 700.45,-602.5 694.53,-598.78"/>
<text text-anchor="middle" x="726.5" y="-405.8" font-family="Times,serif" font-size="14.00">Machine Reclaim</text>
</g>
<!-- Installing&#45;&gt;Planned Reboot -->
<g id="edge8" class="edge">
<title>Installing&#45;&gt;Planned Reboot</title>
<path fill="none" stroke="black" d="M896.63,-180.53C857.49,-170.82 804.68,-157.64 800,-156 784.79,-150.68 782.42,-145.68 767,-141 725.6,-128.43 678.22,-120.08 638.68,-114.7"/>
<polygon fill="black" stroke="black" points="638.91,-111.2 628.54,-113.36 637.99,-118.14 638.91,-111.2"/>
<text text-anchor="middle" x="856.5" y="-144.8" font-family="Times,serif" font-size="14.00">Planned Reboot</text>
</g>
<!-- PXE Booting&#45;&gt; -->
<g id="edge13" class="edge">
<title>PXE Booting&#45;&gt;</title>
<path fill="none" stroke="black" d="M156.01,-523C126.61,-502.53 79.37,-464.03 60,-417 57.46,-410.84 59.83,-408.66 60,-402 60.89,-367.08 64,-358.43 64,-323.5 64,-323.5 64,-323.5 64,-104 64,-58 403.53,-29.69 517.33,-21.49"/>
<polygon fill="black" stroke="black" points="517.58,-24.98 527.31,-20.78 517.08,-17.99 517.58,-24.98"/>
<text text-anchor="middle" x="109.5" y="-275.3" font-family="Times,serif" font-size="14.00">PXE Booting</text>
</g>
<!-- PXE Booting&#45;&gt;Machine Reclaim -->
<g id="edge12" class="edge">
<title>PXE Booting&#45;&gt;Machine Reclaim</title>
<path fill="none" stroke="black" d="M203.55,-557.29C220.83,-568.86 245.76,-583.59 270,-591 363.82,-619.69 392.25,-600.63 490,-609 522.45,-611.78 558.02,-614.93 589.51,-617.76"/>
<polygon fill="black" stroke="black" points="589.31,-621.26 599.58,-618.67 589.93,-614.29 589.31,-621.26"/>
<text text-anchor="middle" x="331.5" y="-579.8" font-family="Times,serif" font-size="14.00">Machine Reclaim</text>
</g>
<!-- PXE Booting&#45;&gt;Planned Reboot -->
<g id="edge14" class="edge">
<title>PXE Booting&#45;&gt;Planned Reboot</title>
<path fill="none" stroke="black" d="M182.97,-521.84C188.97,-469.53 206.65,-315.55 207,-315 274.03,-209.37 415.46,-149.62 495.52,-123"/>
<polygon fill="black" stroke="black" points="497.02,-126.19 505.45,-119.76 494.86,-119.53 497.02,-126.19"/>
<text text-anchor="middle" x="263.5" y="-318.8" font-family="Times,serif" font-size="14.00">Planned Reboot</text>
</g>
<!-- PXE Booting&#45;&gt;Preparing -->
<g id="edge15" class="edge">
<title>PXE Booting&#45;&gt;Preparing</title>
<path fill="none" stroke="black" d="M229.64,-527.07C270.97,-516.94 331.87,-502.01 385,-489 414.5,-481.78 447.42,-473.72 474.23,-467.16"/>
<polygon fill="black" stroke="black" points="475.31,-470.5 484.19,-464.72 473.64,-463.7 475.31,-470.5"/>
<text text-anchor="middle" x="421" y="-492.8" font-family="Times,serif" font-size="14.00">Preparing</text>
</g>
<!-- Preparing&#45;&gt; -->
<g id="edge20" class="edge">
<title>Preparing&#45;&gt;</title>
<path fill="none" stroke="black" d="M522.06,-434.84C500.47,-371.29 429.14,-149.76 461,-87 473.78,-61.83 500.73,-43.75 522.34,-32.59"/>
<polygon fill="black" stroke="black" points="524.09,-35.63 531.52,-28.09 521,-29.34 524.09,-35.63"/>
<text text-anchor="middle" x="485" y="-231.8" font-family="Times,serif" font-size="14.00">Alive</text>
</g>
<!-- Preparing&#45;&gt;Machine Reclaim -->
<g id="edge21" class="edge">
<title>Preparing&#45;&gt;Machine Reclaim</title>
<path fill="none" stroke="black" d="M533.74,-471.09C542.56,-494.61 561.8,-536.48 593,-558 626.94,-581.41 657.83,-544.14 684,-576 689.21,-582.34 690.04,-590.79 689.01,-598.93"/>
<polygon fill="black" stroke="black" points="685.55,-598.39 686.91,-608.9 692.4,-599.84 685.55,-598.39"/>
<text text-anchor="middle" x="654.5" y="-536.3" font-family="Times,serif" font-size="14.00">Machine Reclaim</text>
</g>
<!-- Preparing&#45;&gt;Planned Reboot -->
<g id="edge22" class="edge">
<title>Preparing&#45;&gt;Planned Reboot</title>
<path fill="none" stroke="black" d="M528,-434.74C528,-417.57 528,-390.46 528,-367 528,-367 528,-367 528,-191 528,-170.81 534.79,-149.05 541.43,-132.61"/>
<polygon fill="black" stroke="black" points="544.78,-133.68 545.49,-123.11 538.34,-130.93 544.78,-133.68"/>
<text text-anchor="middle" x="584.5" y="-275.3" font-family="Times,serif" font-size="14.00">Planned Reboot</text>
</g>
<!-- Registering -->
<g id="node9" class="node">
<title>Registering</title>
<ellipse fill="none" stroke="black" cx="771" cy="-366" rx="64.99" ry="18"/>
<text text-anchor="middle" x="771" y="-362.3" font-family="Times,serif" font-size="14.00">Registering</text>
</g>
<!-- Preparing&#45;&gt;Registering -->
<g id="edge23" class="edge">
<title>Preparing&#45;&gt;Registering</title>
<path fill="none" stroke="black" d="M535.24,-434.9C540.88,-423.73 549.8,-409.81 562,-402 584.4,-387.65 648.18,-378.34 699.45,-372.96"/>
<polygon fill="black" stroke="black" points="699.92,-376.43 709.52,-371.94 699.22,-369.47 699.92,-376.43"/>
<text text-anchor="middle" x="604" y="-405.8" font-family="Times,serif" font-size="14.00">Registering</text>
</g>
<!-- Registering&#45;&gt; -->
<g id="edge24" class="edge">
<title>Registering&#45;&gt;</title>
<path fill="none" stroke="black" d="M814.78,-352.55C905.54,-324.28 1101.28,-249.2 1045,-141 1025.71,-103.92 1005.46,-105.54 968,-87 924.54,-65.5 911.43,-64.1 864,-54 766.75,-33.29 649.57,-24.28 591.05,-20.85"/>
<polygon fill="black" stroke="black" points="591,-17.34 580.82,-20.27 590.61,-24.33 591,-17.34"/>
<text text-anchor="middle" x="1072" y="-188.3" font-family="Times,serif" font-size="14.00">Alive</text>
</g>
<!-- Registering&#45;&gt;Machine Reclaim -->
<g id="edge25" class="edge">
<title>Registering&#45;&gt;Machine Reclaim</title>
<path fill="none" stroke="black" d="M786.26,-383.83C793.65,-394.08 799.46,-407.06 792,-417 774.77,-439.94 751.47,-415.96 730,-435 710.48,-452.31 712.22,-463.44 707,-489 705.67,-495.53 703.46,-498.35 707,-504 716.7,-519.5 734.3,-506.5 744,-522 760.26,-548 759.64,-564.62 744,-591 740.69,-596.58 736.15,-601.32 731,-605.35"/>
<polygon fill="black" stroke="black" points="728.82,-602.59 722.49,-611.09 732.74,-608.4 728.82,-602.59"/>
<text text-anchor="middle" x="768.5" y="-492.8" font-family="Times,serif" font-size="14.00">Machine Reclaim</text>
</g>
<!-- Registering&#45;&gt;Planned Reboot -->
<g id="edge26" class="edge">
<title>Registering&#45;&gt;Planned Reboot</title>
<path fill="none" stroke="black" d="M751.65,-348.67C717.84,-320.19 650.99,-264.12 645,-261 618.41,-247.16 600.3,-265.05 580,-243 552.57,-213.21 549.89,-163.85 551.32,-133.22"/>
<polygon fill="black" stroke="black" points="554.81,-133.44 551.97,-123.23 547.83,-132.99 554.81,-133.44"/>
<text text-anchor="middle" x="636.5" y="-231.8" font-family="Times,serif" font-size="14.00">Planned Reboot</text>
</g>
<!-- Waiting -->
<g id="node10" class="node">
<title>Waiting</title>
<ellipse fill="none" stroke="black" cx="889" cy="-279" rx="46.29" ry="18"/>
<text text-anchor="middle" x="889" y="-275.3" font-family="Times,serif" font-size="14.00">Waiting</text>
</g>
<!-- Registering&#45;&gt;Waiting -->
<g id="edge27" class="edge">
<title>Registering&#45;&gt;Waiting</title>
<path fill="none" stroke="black" d="M774.91,-347.68C778.13,-336.98 783.73,-323.69 793,-315 805.43,-303.35 822.05,-295.51 837.97,-290.27"/>
<polygon fill="black" stroke="black" points="839.17,-293.56 847.74,-287.33 837.16,-286.86 839.17,-293.56"/>
<text text-anchor="middle" x="820.5" y="-318.8" font-family="Times,serif" font-size="14.00">Waiting</text>
</g>
<!-- Waiting&#45;&gt; -->
<g id="edge28" class="edge">
<title>Waiting&#45;&gt;</title>
<path fill="none" stroke="black" d="M926.39,-268.33C954.22,-258.79 989.62,-241 1003,-210 1028.28,-151.42 984.28,-118.85 929,-87 871.47,-53.85 673.65,-30.88 590.88,-22.51"/>
<polygon fill="black" stroke="black" points="590.98,-19 580.68,-21.49 590.28,-25.97 590.98,-19"/>
<text text-anchor="middle" x="1023" y="-144.8" font-family="Times,serif" font-size="14.00">Alive</text>
</g>
<!-- Waiting&#45;&gt;Machine Reclaim -->
<g id="edge30" class="edge">
<title>Waiting&#45;&gt;Machine Reclaim</title>
<path fill="none" stroke="black" d="M883.48,-296.89C876.21,-318.06 862.3,-355.05 845,-384 830.08,-408.96 813.66,-407.57 804,-435 798.69,-450.09 796.57,-456.83 804,-471 810.52,-483.45 823.48,-476.55 830,-489 833.09,-494.91 832.19,-497.7 830,-504 813.76,-550.6 800.17,-560.97 761,-591 752.8,-597.29 743.3,-602.69 733.75,-607.24"/>
<polygon fill="black" stroke="black" points="732.31,-604.05 724.62,-611.34 735.18,-610.43 732.31,-604.05"/>
<text text-anchor="middle" x="865.5" y="-449.3" font-family="Times,serif" font-size="14.00">Machine Reclaim</text>
</g>
<!-- Waiting&#45;&gt;Planned Reboot -->
<g id="edge31" class="edge">
<title>Waiting&#45;&gt;Planned Reboot</title>
<path fill="none" stroke="black" d="M856.21,-266.24C828.57,-255.07 789.29,-236.1 762,-210 736.22,-185.34 750.02,-161.74 721,-141 699.1,-125.34 671.7,-116.39 645.46,-111.36"/>
<polygon fill="black" stroke="black" points="645.93,-107.89 635.48,-109.61 644.73,-114.78 645.93,-107.89"/>
<text text-anchor="middle" x="818.5" y="-188.3" font-family="Times,serif" font-size="14.00">Planned Reboot</text>
</g>
<!-- Waiting&#45;&gt;Installing -->
<g id="edge29" class="edge">
<title>Waiting&#45;&gt;Installing</title>
<path fill="none" stroke="black" d="M888.35,-260.8C888.69,-250.66 890.4,-237.93 896,-228 898.72,-223.18 902.38,-218.76 906.44,-214.8"/>
<polygon fill="black" stroke="black" points="908.78,-217.4 914.02,-208.19 904.18,-212.12 908.78,-217.4"/>
<text text-anchor="middle" x="930" y="-231.8" font-family="Times,serif" font-size="14.00">Installing</text>
</g>
<!-- initial -->
<g id="node11" class="node">
<title>initial</title>
<ellipse fill="none" stroke="black" cx="944" cy="-801" rx="37.89" ry="18"/>
<text text-anchor="middle" x="944" y="-797.3" font-family="Times,serif" font-size="14.00">initial</text>
</g>
<!-- initial&#45;&gt;Booting New Kernel -->
<g id="edge33" class="edge">
<title>initial&#45;&gt;Booting New Kernel</title>
<path fill="none" stroke="black" d="M906.21,-800.66C835.74,-801.01 680.04,-797.59 554,-765 528.31,-758.36 501.06,-746.46 479.76,-735.94"/>
<polygon fill="black" stroke="black" points="481.23,-732.76 470.72,-731.38 478.07,-739.01 481.23,-732.76"/>
<text text-anchor="middle" x="626" y="-753.8" font-family="Times,serif" font-size="14.00">Booting New Kernel</text>
</g>
<!-- initial&#45;&gt; -->
<g id="edge32" class="edge">
<title>initial&#45;&gt;</title>
<path fill="none" stroke="black" d="M981.73,-800.78C1089.49,-802.02 1391,-798.04 1391,-715 1391,-715 1391,-715 1391,-104 1391,-22.45 753.91,-18.5 591.38,-18.82"/>
<polygon fill="black" stroke="black" points="591.36,-15.32 581.37,-18.84 591.38,-22.32 591.36,-15.32"/>
<text text-anchor="middle" x="1409" y="-405.8" font-family="Times,serif" font-size="14.00">Alive</text>
</g>
<!-- initial&#45;&gt;Machine Reclaim -->
<g id="edge35" class="edge">
<title>initial&#45;&gt;Machine Reclaim</title>
<path fill="none" stroke="black" d="M909.39,-793.72C869.51,-785.15 803.51,-766.71 757,-732 729.15,-711.22 706.84,-677.58 693.55,-654.21"/>
<polygon fill="black" stroke="black" points="696.47,-652.26 688.58,-645.19 690.34,-655.64 696.47,-652.26"/>
<text text-anchor="middle" x="818.5" y="-710.3" font-family="Times,serif" font-size="14.00">Machine Reclaim</text>
</g>
<!-- initial&#45;&gt;Phoned Home -->
<g id="edge37" class="edge">
<title>initial&#45;&gt;Phoned Home</title>
<path fill="none" stroke="black" d="M906.23,-798.62C789.11,-793.9 433.57,-776.2 328,-732 227.35,-689.86 177.35,-687.81 127,-591 107.73,-553.94 179.53,-570.28 260,-558 270.09,-556.46 280.74,-554.75 291.18,-553.01"/>
<polygon fill="black" stroke="black" points="291.81,-556.46 301.09,-551.36 290.65,-549.55 291.81,-556.46"/>
<text text-anchor="middle" x="252" y="-666.8" font-family="Times,serif" font-size="14.00">Phoned Home</text>
</g>
<!-- initial&#45;&gt;Planned Reboot -->
<g id="edge38" class="edge">
<title>initial&#45;&gt;Planned Reboot</title>
<path fill="none" stroke="black" d="M960.1,-784.36C974.71,-768.42 994,-742.22 994,-715 994,-715 994,-715 994,-582.5 994,-503.79 1137.48,-499.24 1092,-435 1058.37,-387.5 900.59,-365.23 845,-348 815.55,-338.87 803.97,-346.62 778,-330 728.3,-298.19 734.19,-270.26 693,-228 657.3,-191.38 612.22,-153.1 583.25,-129.4"/>
<polygon fill="black" stroke="black" points="585.13,-126.42 575.16,-122.83 580.71,-131.85 585.13,-126.42"/>
<text text-anchor="middle" x="1156.5" y="-449.3" font-family="Times,serif" font-size="14.00">Planned Reboot</text>
</g>
<!-- initial&#45;&gt;Installing -->
<g id="edge34" class="edge">
<title>initial&#45;&gt;Installing</title>
<path fill="none" stroke="black" d="M981.58,-799.14C1074.58,-796.01 1308,-781.52 1308,-715 1308,-715 1308,-715 1308,-495.5 1308,-331.96 1088.54,-240.75 988.11,-207.58"/>
<polygon fill="black" stroke="black" points="989.08,-204.21 978.49,-204.46 986.92,-210.87 989.08,-204.21"/>
<text text-anchor="middle" x="1342" y="-492.8" font-family="Times,serif" font-size="14.00">Installing</text>
</g>
<!-- initial&#45;&gt;PXE Booting -->
<g id="edge36" class="edge">
<title>initial&#45;&gt;PXE Booting</title>
<path fill="none" stroke="black" d="M906.2,-799.5C816.3,-797.91 582.88,-791.35 390,-765 319.78,-755.41 302.1,-751.6 234,-732 167.11,-712.75 126.84,-735.07 87,-678 67.65,-650.27 46.32,-662.38 120,-576 124.85,-570.32 130.86,-565.35 137.21,-561.08"/>
<polygon fill="black" stroke="black" points="139.3,-563.91 145.99,-555.7 135.64,-557.94 139.3,-563.91"/>
<text text-anchor="middle" x="132.5" y="-666.8" font-family="Times,serif" font-size="14.00">PXE Booting</text>
</g>
<!-- initial&#45;&gt;Preparing -->
<g id="edge39" class="edge">
<title>initial&#45;&gt;Preparing</title>
<path fill="none" stroke="black" d="M935.65,-783.12C922.05,-756.37 893.44,-703.16 862,-663 807.18,-592.97 795.3,-569.33 720,-522 677.63,-495.37 623.44,-477.4 583.44,-466.66"/>
<polygon fill="black" stroke="black" points="584.15,-463.23 573.59,-464.08 582.38,-470 584.15,-463.23"/>
<text text-anchor="middle" x="883" y="-623.3" font-family="Times,serif" font-size="14.00">Preparing</text>
</g>
<!-- initial&#45;&gt;Registering -->
<g id="edge40" class="edge">
<title>initial&#45;&gt;Registering</title>
<path fill="none" stroke="black" d="M972.7,-789C984.77,-783.28 998.24,-775.29 1008,-765 1024.96,-747.12 1032,-739.65 1032,-715 1032,-715 1032,-715 1032,-582.5 1032,-576.79 893.5,-438.51 889,-435 864.79,-416.14 834.81,-398.93 811.12,-386.54"/>
<polygon fill="black" stroke="black" points="812.54,-383.33 802.05,-381.87 809.34,-389.56 812.54,-383.33"/>
<text text-anchor="middle" x="1074" y="-579.8" font-family="Times,serif" font-size="14.00">Registering</text>
</g>
<!-- initial&#45;&gt;Waiting -->
<g id="edge41" class="edge">
<title>initial&#45;&gt;Waiting</title>
<path fill="none" stroke="black" d="M980.74,-796.66C1056.9,-788.71 1225,-765.46 1225,-715 1225,-715 1225,-715 1225,-582.5 1225,-549.39 1265.65,-461.64 1246,-435 1223.22,-404.11 1116.84,-397.74 1081,-384 1027.52,-363.5 1013.98,-357.97 964,-330 948.43,-321.29 931.85,-310.42 918.25,-301.04"/>
<polygon fill="black" stroke="black" points="919.99,-297.98 909.78,-295.13 915.98,-303.72 919.99,-297.98"/>
<text text-anchor="middle" x="1265.5" y="-536.3" font-family="Times,serif" font-size="14.00">Waiting</text>
</g>
</g>
</svg>
